<svg viewBox="0 0 172 200" fill="none" xmlns="http://www.w3.org/2000/svg">
<path d="M106.144 12.9425C106.447 12.7116 106.772 12.8241 107.271 13.1648C106.989 13.7392 106.209 13.973 105.927 14.5474C105.602 14.4348 105.602 14.4348 105.45 14.5503C105.624 14.7784 105.949 14.8909 106.599 15.1161C106.751 15.0006 106.881 14.5417 107.033 14.4262C108.442 14.074 109.83 13.3784 111.044 12.4547C111.542 12.7953 111.781 11.5339 112.648 12.6741L111.889 13.2514C111.239 13.0262 111.261 13.3697 111.608 13.8258C111.456 13.9413 111.456 13.9413 110.957 13.6006L110.957 13.6009C110.827 14.0598 110.697 14.5186 110.719 14.8621L111.066 15.3182L111.825 14.7408C111.695 15.1998 111.868 15.4279 111.717 15.5433C111.868 15.4279 112.194 15.5404 112.497 15.3095C112.649 15.194 112.627 14.8505 112.605 14.507C112.757 14.3916 112.735 14.0481 113.06 14.1607C113.841 13.9268 114.426 13.1215 115.207 12.8877C115.532 13.0003 115.857 13.1128 116.334 13.11C116.486 12.9945 116.768 12.4201 117.267 12.7607C117.05 11.8456 118.004 11.8399 117.96 11.1529C117.765 10.5813 118.09 10.6939 118.567 10.691C119.044 10.6881 119.673 10.5698 120.475 10.6795C120.952 10.6766 121.407 10.3302 121.711 10.0993L122.621 9.4065C122.643 9.74999 122.817 9.97805 122.665 10.0935C122.361 10.3244 122.21 10.4399 121.884 10.3273C121.581 10.5582 122.101 11.2424 121.603 10.9017C120.8 10.792 121.516 12.0477 121.039 12.0506C121.538 12.3912 121.69 12.2758 121.993 12.0448C122.297 11.8139 122.947 12.0391 123.229 11.4646C123.988 10.8873 124.92 10.538 125.852 10.1888L126.914 9.38054C127.066 9.26507 127.218 9.14961 127.565 9.6057C127.738 9.83374 128.345 9.37188 128.497 9.25642L128.801 9.0255C129.559 8.44818 130.47 7.75541 131.771 8.20572C132.66 7.16944 134.459 7.96038 135.522 7.15213C135.977 6.80575 136.454 6.80287 137.083 6.68452C138.34 6.44782 140.053 5.86474 140.963 5.17197C141.115 5.0565 141.419 4.82557 141.397 4.48208C141.722 4.59465 141.874 4.47919 142.026 4.36372L142.633 3.90187C142.784 3.78641 142.784 3.78641 143.11 3.89899C143.088 3.55549 143.24 3.44002 143.391 3.32457C143.695 3.09364 144.172 3.09076 144.475 2.85983C144.757 2.28541 145.559 2.39509 146.188 2.27676L146.34 2.16129C146.925 1.35593 148.031 1.2347 148.963 0.885433C149.419 0.539041 150.394 0.876774 151.001 0.414934C151.782 0.181116 152.411 0.0627698 153.213 0.172471C153.733 0.856582 152.476 1.09329 153.343 2.23349C152.585 2.8108 152.151 3.50068 151.739 4.53408C152.412 5.10273 151.956 5.44912 151.805 5.56458C151.349 5.91097 150.201 7.86518 150.223 8.20868C149.767 8.55506 149.659 9.35754 149.204 9.70393C149.204 9.70393 149.052 9.81939 148.727 9.7068C148.575 9.82226 148.467 10.6247 148.163 10.8557C148.033 11.3146 147.73 11.5456 147.426 11.7765C147.015 12.8099 146.733 13.3843 146.299 14.0742C145.996 14.3051 145.367 14.4235 145.389 14.767C145.281 15.5694 144.804 15.5723 144.348 15.9187C143.915 16.6086 143.156 17.1859 142.723 17.8758L142.116 18.3376C142.159 19.0246 141.856 19.2556 141.552 19.4865C141.249 19.7174 141.27 20.0609 140.793 20.0638C140.49 20.2947 140.685 20.8663 140.382 21.0972C140.078 21.3281 139.601 21.331 139.146 21.6774C138.712 22.3673 138.127 23.1726 137.52 23.6345C137.217 23.8654 136.913 24.0963 136.436 24.0992C136.328 24.9017 136.176 25.0172 136.025 25.1326L135.569 25.479C135.439 25.938 135.136 26.1689 134.832 26.3998L134.529 26.6307C133.9 26.7491 133.77 27.2081 133.814 27.8951C133.337 27.8979 133.185 28.0134 133.033 28.1289C132.578 28.4753 132.296 29.0497 131.841 29.3961C131.689 29.5115 131.537 29.627 130.909 29.7453C131.126 30.6604 130.302 30.2072 130.15 30.3227C130.193 31.0097 130.042 31.1251 129.565 31.128C129.239 31.0154 128.936 31.2464 128.784 31.3618C128.632 31.4773 128.481 31.5927 128.199 32.1672C127.874 32.0546 128.242 32.8542 127.744 32.5136C127.418 32.401 127.288 32.8599 127.137 32.9754L126.378 33.5527C126.074 33.7836 125.944 34.2426 125.489 34.589C124.643 33.7923 125.229 35.5069 124.557 34.9383C124.253 35.1692 124.123 35.6282 123.82 35.8591L121.24 37.822C121.088 37.9374 120.763 37.8248 120.438 37.7123L120.438 37.7123C120.46 38.0557 120.46 38.0557 120.308 38.1712L119.853 38.5176C119.701 38.6331 119.549 38.7485 119.571 39.092C119.246 38.9794 119.094 39.0949 118.942 39.2104C118.639 39.4413 118.509 39.9003 118.357 40.0157C118.227 40.4747 117.576 40.2495 117.425 40.365C117.273 40.4805 117.121 40.5959 117.316 41.1675L117.316 41.1674C116.991 41.0549 116.666 40.9423 116.514 41.0578C116.211 41.2887 116.232 41.6322 115.929 41.8631C115.777 41.9786 115.625 42.0941 115.3 41.9815L114.541 42.5588C113.631 43.2516 112.395 43.8318 111.333 44.64L109.967 45.6792L109.512 46.0255C109.36 46.141 109.035 46.0284 109.035 46.0284C108.731 46.2594 108.233 45.9187 107.929 46.1497C107.777 46.2651 107.951 46.4932 107.973 46.8367L107.973 46.8367C107.192 47.0705 106.412 47.3043 105.805 47.7661C105.501 47.9971 105.371 48.456 104.916 48.8024C104.417 48.4618 104.482 49.4923 103.984 49.1517C103.225 49.729 102.119 49.8502 101.36 50.4275C101.209 50.543 100.905 50.7739 100.927 51.1174C100.775 51.2329 100.45 51.1203 100.146 51.3512C99.9946 51.4667 99.8429 51.5822 99.8647 51.9257C99.0189 51.129 98.6071 52.1624 97.9566 51.9372C97.8266 52.3962 97.6749 52.5116 97.5231 52.6271L96.9161 53.089C96.7644 53.2044 96.6126 53.3199 96.7862 53.5479C95.5286 53.7846 94.6181 54.4774 93.5124 54.5986L92.7536 55.1759C92.7754 55.5194 92.4719 55.7504 92.3201 55.8658L92.3201 55.8658C91.3879 56.2151 90.4556 56.5644 89.6969 57.1417C89.0681 57.26 88.6129 57.6064 88.0059 58.0683L88.0059 58.0683C87.5506 58.4147 87.0954 58.761 86.4666 58.8794L86.1631 59.1103C85.1873 58.7726 84.7321 59.119 84.4286 59.3499L83.6699 59.9272C83.5181 60.0427 83.3881 60.5016 83.2146 60.2736C82.8893 60.161 82.7376 60.2765 82.5859 60.3919C82.2824 60.6229 82.3041 60.9664 82.1524 61.0818C82.0006 61.1973 81.6754 61.0847 81.6754 61.0847L81.2201 61.4311L78.7921 63.2785L78.1851 63.7403C77.0793 63.8616 76.1471 64.2108 75.5401 64.6727C75.3883 64.7882 75.1066 65.3626 74.7813 65.25C74.1091 64.6813 74.8249 65.937 74.3261 65.5964C73.4156 66.2892 72.1798 66.8694 71.9416 68.1308C71.8116 68.5898 71.6817 69.0487 71.0094 68.4801C70.8359 68.252 70.3589 68.2549 70.3589 68.2549C70.3806 68.5984 70.2289 68.7139 70.0771 68.8293C69.6219 69.1757 67.3451 68.3877 66.4993 67.591L65.8052 66.6788C65.0029 66.5691 65.1329 66.1102 65.1112 65.7667C65.0894 65.4232 64.7642 65.3106 64.7642 65.3106C63.3978 63.8298 63.3978 63.8298 62.465 61.6591L61.9445 60.9749C61.5975 60.5189 61.0987 60.1782 61.2287 59.7193C60.2311 59.038 60.4693 57.7766 59.3201 57.2108C58.9948 57.0983 58.4525 56.0706 58.6043 55.9552C58.7342 55.4962 58.192 54.4686 57.8449 54.0125C56.9991 53.2158 57.1074 52.4133 56.8903 51.4983C56.6951 50.9267 56.6515 50.2397 56.131 49.5556C55.9357 48.9841 56.2175 48.4096 55.5452 47.841C55.0247 47.1569 55.2846 46.2389 55.0894 45.6674C54.5471 44.6398 55.3276 44.406 54.8071 43.7218C54.4383 42.9223 54.72 42.3478 54.6765 41.6608L54.6112 40.6303C54.3724 39.3718 53.8084 38.0006 54.0683 37.0827C54.3501 36.5083 54.4583 35.7058 54.2413 34.7908C53.9154 32.1582 55.3024 28.9426 56.9716 27.6725C57.1233 27.557 60.5271 26.0474 60.6789 25.9319C61.0041 26.0445 61.4594 25.6981 61.7629 25.4672L62.3699 25.0053L62.8251 24.6589C63.7791 24.6532 71.8224 21.0536 72.9064 20.5889C74.2939 19.8932 75.5297 19.313 77.2642 19.0735L77.7195 18.7271L78.023 18.4961C78.3265 18.2652 78.63 18.0343 78.9552 18.1469L78.9554 18.1469C79.4323 18.144 79.9093 18.1411 80.538 18.0228C80.8415 17.7918 81.145 17.5609 81.622 17.558C81.9255 17.3271 82.229 17.0962 82.706 17.0933C83.0095 16.8624 83.8118 16.9721 83.9635 16.8566C84.0717 16.0541 84.397 16.1667 84.8958 16.5073C85.0258 16.0484 85.8498 16.5016 86.1533 16.2706C86.6085 15.9243 87.1073 16.2649 87.5843 16.262C87.8878 16.0311 88.5383 16.2562 88.8418 16.0253C89.3189 16.0224 89.6223 15.7915 89.9258 15.5606C90.3811 15.2142 90.9234 16.2418 91.2051 15.6674C91.8556 15.8925 92.2674 14.8591 92.9832 16.1148C93.4384 15.7684 93.9154 15.7655 94.3924 15.7626C94.6959 15.5317 95.3682 16.1004 95.6717 15.8694C95.9752 15.6385 96.3005 15.7511 96.7775 15.7482C97.2545 15.7453 97.3627 14.9429 97.8615 15.2835C98.5555 16.1956 98.1432 14.709 98.4902 15.1651C99.4007 14.4724 100.55 15.0381 101.656 14.9169C101.981 15.0295 102.48 15.3701 102.263 14.455C102.263 14.455 102.588 14.5676 102.74 14.4522C103.846 14.3309 104.951 14.2097 105.862 13.5169C106.014 13.4015 105.992 13.058 106.144 12.9425Z" fill="#FF4029"/>
<path d="M154.926 2.10937C155.1 2.33741 154.948 2.45287 154.796 2.56833C154.644 2.6838 154.319 2.57122 154.319 2.57122C153.625 1.65906 154.471 2.45576 154.449 2.11224C154.601 1.99678 154.601 1.99678 154.731 1.53782C154.904 1.76586 155.078 1.99391 154.926 2.10937Z" fill="#FF4029"/>
<path d="M129.977 32.6146C129.825 32.7301 129.652 32.502 129.5 32.6175C129.63 32.1585 129.782 32.0431 129.933 31.9276L129.977 32.6146Z" fill="#FF4029"/>
<path d="M153.56 3.14853C153.409 3.26399 153.279 3.72295 153.127 3.83842C153.279 3.72295 153.582 3.49203 153.56 3.14853Z" fill="#FF4029"/>
<path d="M113.927 12.7809L113.472 13.1273C113.45 12.7838 113.277 12.5557 113.277 12.5557C113.602 12.6683 113.754 12.5528 113.927 12.7809Z" fill="#FF4029"/>
<path d="M123.12 9.74712C123.098 9.40361 122.925 9.17557 122.925 9.17557C123.25 9.28815 123.25 9.28815 123.402 9.17268C123.272 9.63165 123.272 9.63166 123.12 9.74712Z" fill="#FF4029"/>
<path d="M124.362 36.8867C124.189 36.6587 124.189 36.6587 124.037 36.7741C124.21 37.0022 124.21 37.0022 124.362 36.8867Z" fill="#FF4029"/>
<path d="M93.6426 66.7639C93.3728 66.5626 93.3728 66.5626 93.3201 66.7478C93.3455 67.1516 93.3624 67.4209 93.1791 67.5727C93.0568 67.6739 92.6206 67.8936 92.4983 67.9948C92.3677 67.9614 92.1674 67.8441 92.1843 68.1133C92.1147 68.0293 91.8007 68.1477 91.9756 67.8613C91.8534 67.9625 91.5836 67.7611 91.4613 67.8623C91.4613 67.8623 91.4002 67.913 91.4087 68.0476C91.4782 68.1316 91.2949 68.2834 91.0862 68.0314L91.0251 68.082C91.1116 68.4353 90.8417 68.2339 90.7195 68.3351C90.5973 68.4363 90.4666 68.4029 90.3444 68.5042C90.2833 68.5548 90.2221 68.6054 90.2306 68.74C90.3002 68.824 90.2391 68.8746 90.1779 68.9252C89.9861 68.9425 89.8555 68.9091 89.6637 68.9263C89.6026 68.9769 89.5583 69.2968 89.2885 69.0954C89.2274 69.146 89.1578 69.062 89.1578 69.062C89.3412 68.9101 89.3327 68.7755 89.3854 68.5903L89.202 68.7421C89.0798 68.8433 88.966 69.0792 88.8438 69.1804C88.7216 69.2816 88.6605 69.3323 88.4076 69.4001C88.3295 69.1815 88.3907 69.1309 88.3907 69.1309C88.6351 68.9284 88.81 68.642 89.0545 68.4395L89.6045 67.984C89.6656 67.9334 89.7878 67.8321 89.9796 67.8149C89.9016 67.5963 90.2325 67.7471 90.2241 67.6125C90.4601 67.2754 90.8963 67.0557 90.9932 66.5506C90.9847 66.416 91.1765 66.3988 91.2988 66.2976C91.3599 66.247 91.499 66.415 91.421 66.1963C91.3514 66.1123 91.2207 66.079 91.09 66.0456L90.9678 66.1468C90.9152 66.332 90.9321 66.6013 90.8014 66.5679C90.4789 66.5517 90.6265 66.8543 90.4958 66.8209C90.2956 66.7035 90.382 67.0568 90.2514 67.0234C90.1207 66.99 90.1291 67.1246 90.1376 67.2592C90.0765 67.3098 90.0154 67.3605 89.8847 67.3271L89.4926 67.2269L88.3926 68.1379C88.3399 68.3232 88.009 68.1724 88.0955 68.5256C88.0259 68.4416 87.9648 68.4922 87.9648 68.4922C87.7645 68.3748 87.7034 68.4255 87.7119 68.5601C87.7203 68.6947 87.6592 68.7453 87.5201 68.5773L87.3283 68.5945C87.4148 68.9478 87.1618 69.0156 87.0396 69.1168C86.987 69.3021 86.8647 69.4033 86.6034 69.3365L86.5338 69.2525C86.4116 69.3537 86.5592 69.6564 86.3589 69.539C86.2978 69.5896 86.342 69.2697 86.1587 69.4216C85.7835 69.5906 85.4695 69.7091 85.0859 69.7435C85.0248 69.7942 84.833 69.8114 84.7719 69.862C84.7108 69.9126 84.7108 69.9126 84.597 70.1484C83.8909 70.1667 83.6991 70.184 83.2102 70.5889L82.8435 70.8925C82.7128 70.8592 82.6602 71.0444 82.521 70.8764C82.4515 70.7924 82.4346 70.5232 82.5568 70.4219C82.6875 70.4553 82.6875 70.4553 82.7486 70.4047C82.8708 70.3035 83.0542 70.1516 83.1068 69.9664C82.8539 70.0342 82.6095 70.2367 82.2174 70.1365C82.1121 70.507 81.5724 70.1042 81.4587 70.34C81.0666 70.2399 80.8222 70.4423 80.5081 70.5608C79.7494 70.7643 78.9822 70.8332 78.0843 70.8687C77.5701 70.8698 76.1137 71.2262 75.6775 71.4459C75.5552 71.5471 75.3023 71.6149 75.041 71.5482C74.7796 71.4814 74.5351 71.6838 74.2822 71.7517C74.0904 71.7689 73.515 71.8206 73.3317 71.9724C73.2706 72.023 73.0177 72.0909 72.7478 71.8895C72.6952 72.0747 72.5034 72.0919 72.242 72.0252C71.9195 72.009 71.5275 71.9088 71.1439 71.9433C70.9521 71.9605 70.8214 71.9271 70.8994 72.1457C71.047 72.4483 70.9333 72.6842 70.9502 72.9534C71.4794 74.2145 72.3396 75.6264 73.1829 76.769C73.1829 76.769 73.2525 76.853 73.261 76.9876C73.2779 77.2569 73.339 77.2063 73.4612 77.105C73.6699 77.357 73.8175 77.6597 73.9566 77.8277C73.7037 77.8955 73.7733 77.9795 73.9124 78.1475C74.1907 78.4835 74.3383 78.7861 74.4859 79.0888C74.878 79.1889 74.9118 79.7274 75.1731 79.7942C75.1985 80.198 75.5906 80.2982 75.677 80.6514C75.7466 80.7354 76.0164 80.9368 76.1471 80.9702C76.4085 81.037 76.6172 81.289 76.6341 81.5582C76.7732 81.7262 76.8513 81.9448 77.0346 81.793C76.8343 81.6756 76.8259 81.541 76.9397 81.3051C77.0008 81.2545 77.0704 81.3385 77.0092 81.3892C77.1484 81.5572 77.1568 81.6918 77.1042 81.877C77.0769 82.4661 77.6081 82.7342 77.8863 83.0702C77.9559 83.1543 78.0781 83.053 78.0781 83.053C78.2004 82.9518 78.2615 82.9012 78.4702 83.1532C78.5398 83.2372 78.6704 83.2706 78.8011 83.304C79.0014 83.4214 79.2627 83.4881 79.2185 83.808C79.1659 83.9932 79.3661 84.1106 79.4884 84.0094C79.6106 83.9081 79.9415 84.0589 80.0638 83.9577C80.1249 83.9071 80.0553 83.8231 80.1164 83.7725C80.1775 83.7219 80.4304 83.654 80.4304 83.654C80.7087 83.99 80.8309 83.8888 80.8921 83.8382C81.0143 83.737 81.1365 83.6357 81.2672 83.6691C81.4421 83.3827 81.8952 83.4322 82.009 83.1964C82.4368 82.8421 82.9426 82.7064 83.3093 82.4027C83.4316 82.3015 83.6318 82.4189 83.6149 82.1497C83.6064 82.015 83.9289 82.0312 84.0511 81.93C84.2956 81.7275 84.4789 81.5757 84.793 81.4572C84.9236 81.4906 84.8541 81.4066 84.9152 81.356L85.2819 81.0523C85.7097 80.698 86.2681 80.3771 86.6959 80.0228C87.0626 79.7191 87.4293 79.4155 87.9963 79.2292L89.0963 78.3181C89.2796 78.1663 89.3323 77.9811 89.4545 77.8798C89.5156 77.8292 89.5768 77.7786 89.6463 77.8626L90.7464 76.9516C90.9382 76.9343 91.0519 76.6985 91.1742 76.5973C91.2964 76.496 91.2099 76.1428 91.4713 76.2096C92.1435 75.6528 92.7547 75.1467 93.2962 74.5566C93.4185 74.4553 93.8463 74.101 94.1076 74.1678C93.9685 73.9998 94.0907 73.8986 94.1518 73.848C94.3436 73.8307 94.4048 73.7801 94.527 73.6789C94.7103 73.5271 94.8241 73.2912 95.0074 73.1394C95.0686 73.0888 95.1908 72.9875 94.9905 72.8701C94.9905 72.8701 95.2876 72.4825 95.3572 72.5665C95.4879 72.5999 95.5575 72.6839 95.4794 72.4652L95.6712 72.448C95.9853 72.3296 95.8988 71.9763 96.1517 71.9085C96.1874 71.454 96.571 71.4196 96.7459 71.1331C96.7986 70.9479 97.1295 71.0987 96.8512 70.7627C96.8512 70.7627 96.965 70.5268 97.0346 70.6108C97.1653 70.6442 97.1568 70.5096 97.1483 70.375C97.3486 70.4924 97.3317 70.2231 97.3317 70.2231C97.6626 70.3739 97.515 70.0713 97.5066 69.9367C97.6815 69.6502 97.9175 69.3131 98.0839 68.8921C98.145 68.8415 98.2672 68.7402 98.1977 68.6562C98.1808 68.387 98.2334 68.2018 98.2945 68.1512C98.4168 68.0499 98.5474 68.0833 98.6697 67.9821C98.7139 67.6623 98.6885 67.2584 98.8023 67.0226C98.9161 66.7867 98.6462 66.5853 98.5597 66.2321C98.3068 66.2999 97.959 65.8799 97.7841 66.1664C97.723 66.217 97.5312 66.2342 97.4005 66.2008C97.1391 66.134 96.9474 66.1513 96.764 66.3031C96.7029 66.3537 96.5807 66.455 96.5891 66.5896C96.3804 66.3376 96.1802 66.2202 96.1106 66.1362C95.7966 66.2546 95.4741 66.2385 95.0905 66.2729C95.1432 66.0877 95.1347 65.9531 95.1874 65.7678C94.9956 65.7851 94.8733 65.8863 94.8122 65.9369C94.7511 65.9875 94.4982 66.0554 94.5678 66.1394L94.14 66.4937C93.9566 66.6455 93.8344 66.7467 93.6426 66.7639Z" fill="white"/>
<path d="M86.8667 68.4104C86.8055 68.461 86.6749 68.4276 86.4135 68.3608C86.658 68.1584 86.8413 68.0065 87.3029 68.1907C87.0415 68.1239 86.9889 68.3091 86.8667 68.4104Z" fill="white"/>
<path d="M92.9703 67.3207L92.8312 67.1527C92.8923 67.1021 92.9619 67.1861 93.023 67.1355C92.9619 67.1861 93.0315 67.2701 92.9703 67.3207Z" fill="white"/>
<path d="M83.7014 82.5029C83.832 82.5363 83.8321 82.5363 83.8932 82.4857C83.7625 82.4523 83.7625 82.4523 83.7014 82.5029Z" fill="white"/>
<path d="M90.319 68.1003L90.4497 68.1337C90.3801 68.0497 90.319 68.1003 90.319 68.1003Z" fill="white"/>
<path d="M96.6203 64.0146C96.7594 64.1827 96.7594 64.1827 96.8205 64.132C96.751 64.0481 96.7509 64.048 96.6203 64.0146Z" fill="white"/>
<path d="M90.7995 67.5608C90.7383 67.6114 90.7383 67.6114 90.8079 67.6954L90.7995 67.5608Z" fill="white"/>
<path d="M102.616 101.103C102.857 101.147 102.962 101.117 103.202 101.162C103.097 101.192 103.022 101.327 102.917 101.357C102.737 101.523 102.632 101.553 102.572 101.343C102.467 101.373 102.436 101.268 102.301 101.193C102.331 101.298 102.256 101.434 102.256 101.434C102.181 101.569 102.317 101.644 102.212 101.674C102.302 101.989 102.543 102.034 102.963 101.913C102.933 101.808 103.038 101.778 103.143 101.748C103.248 101.717 103.459 101.657 103.564 101.627C103.669 101.597 103.669 101.597 103.774 101.566C103.849 101.431 103.954 101.401 104.059 101.371L104.194 101.445C104.224 101.551 104.255 101.656 104.15 101.686L102.304 102.786C102.229 102.921 102.063 102.741 101.853 102.801C101.853 102.801 100.923 103.524 100.848 103.659C100.638 103.72 98.7172 104.955 98.6121 104.985C98.2968 105.076 98.0419 105.377 97.7568 105.573C97.1564 105.859 96.5114 106.386 95.8807 106.567C95.6705 106.628 95.5208 106.898 95.3106 106.959C95.1306 107.124 94.6497 107.035 94.5748 107.17C94.5302 107.411 94.32 107.471 94.1098 107.532C94.0047 107.562 93.7945 107.622 93.6894 107.653C93.5843 107.683 93.5094 107.818 93.5094 107.818C93.2992 107.879 93.2545 108.119 92.8787 108C92.8485 107.894 92.5634 108.09 92.3834 108.256C92.1732 108.316 91.963 108.377 91.7831 108.542C91.6031 108.708 91.3929 108.768 91.1827 108.829C90.6269 108.875 89.5614 109.523 89.0964 109.884C89.0215 110.019 88.9164 110.049 88.8113 110.08C88.1807 110.261 87.4449 110.473 86.9352 111.074C86.7552 111.24 86.5292 110.85 86.3795 111.12C86.3046 111.256 86.0944 111.316 86.0195 111.451C84.954 112.099 83.7979 112.432 82.8678 113.154C82.7626 113.185 82.5669 112.9 82.5222 113.14C82.4473 113.275 82.2371 113.336 82.0571 113.501C81.952 113.532 81.7418 113.592 81.6367 113.622C81.5619 113.758 81.3819 113.923 81.2768 113.953C80.541 114.165 78.2892 115.04 77.719 115.432C77.539 115.597 77.1935 115.583 76.9833 115.643C76.8782 115.673 76.7731 115.704 76.668 115.734C76.6982 115.839 76.5327 115.659 76.5327 115.659C76.3225 115.719 76.1569 115.539 75.9467 115.6C75.9467 115.6 75.8718 115.735 75.7969 115.871C75.5565 115.826 75.3161 115.781 75.0756 115.737C74.8654 115.797 74.805 115.587 74.6394 115.407C74.2781 114.942 73.9167 114.477 73.3452 114.072C73.0443 113.817 72.683 113.352 72.4268 112.857C72.4412 112.511 72.0956 112.497 72.005 112.182C71.9445 111.971 71.8538 111.656 71.7934 111.446C71.7632 111.341 71.6278 111.266 71.6278 111.266C71.0261 110.756 70.3625 109.24 70.1509 108.504C69.8947 108.009 69.6384 107.514 69.4571 106.883C69.3664 106.568 69.0655 106.313 68.9749 105.998C68.854 105.577 68.4033 105.593 68.3875 105.142C68.4624 105.007 68.222 104.962 68.2666 104.722C68.1759 104.407 68.0853 104.091 67.7844 103.837C67.6188 103.657 67.7239 103.626 67.7988 103.491C67.9788 103.325 68.1588 103.16 68.3388 102.994C68.5634 102.588 68.6383 102.453 68.9982 102.122C69.5238 101.971 70.919 100.887 71.0831 100.271C71.6389 100.225 71.9384 99.6832 72.4639 99.5321C72.5388 99.3968 72.6137 99.2614 72.7188 99.2312C72.929 99.1708 73.0341 99.1405 73.2443 99.0801C73.3494 99.0499 73.4545 99.0196 73.4545 99.0196C73.6647 98.9592 73.7698 98.929 73.98 98.8685C74.0851 98.8383 75.1808 98.2956 75.1506 98.1905C75.2557 98.1603 75.3608 98.13 75.391 98.2351C75.6617 98.3849 75.8417 98.2194 76.0519 98.1589C76.6523 97.8724 77.3578 97.5558 77.928 97.1642C78.1079 96.9986 78.4535 97.0131 78.6637 96.9526C78.7688 96.9224 78.8739 96.8922 78.979 96.8619C79.3994 96.741 79.7147 96.6504 80.0747 96.3193C80.6002 96.1681 80.8104 96.1077 81.2755 95.7463L82.1465 95.6096C82.2516 95.5794 82.4619 95.519 82.6721 95.4585C83.0925 95.3376 83.4078 95.2469 83.8282 95.126C83.8282 95.126 83.9333 95.0958 84.0384 95.0656C84.1435 95.0354 84.2184 94.9 84.3235 94.8698C84.5337 94.8094 84.5784 94.5689 84.7886 94.5085C84.8937 94.4783 85.029 94.5531 85.1643 94.628C85.4796 94.5373 85.795 94.4467 85.9447 94.176C86.1247 94.0104 86.2298 93.9802 86.44 93.9198C86.5451 93.8895 86.7553 93.8291 86.8906 93.904C87.026 93.9788 87.1613 94.0537 87.206 93.8133C87.1757 93.7082 87.1153 93.498 87.3859 93.6477C87.5515 93.8277 87.6566 93.7975 87.7617 93.7673C87.8668 93.737 87.8668 93.737 88.0468 93.5715C88.0166 93.4664 88.2872 93.6161 88.3923 93.5859C88.4974 93.5557 88.6774 93.3901 88.7825 93.3599C89.0676 93.1641 89.2778 93.1037 89.5931 93.013C89.9084 92.9223 90.3289 92.8014 90.7493 92.6805C90.8544 92.6503 90.9595 92.6201 91.0948 92.695C91.3352 92.7396 91.5901 92.4387 91.7701 92.2732C91.9054 92.348 92.0407 92.4229 92.1458 92.3927C92.3561 92.3322 92.6411 92.1365 92.8513 92.076C93.0616 92.0156 93.2718 91.9551 93.482 91.8947C93.8275 91.9091 94.1428 91.8184 94.4581 91.7277C94.7734 91.6371 95.1939 91.5162 95.5092 91.4255C95.6143 91.3953 95.8245 91.3348 96.0347 91.2744C96.2449 91.2139 96.3947 90.9432 96.6351 90.9879C96.8755 91.0326 97.5061 90.8512 97.8215 90.7605C97.9266 90.7303 98.0317 90.7001 98.1065 90.5647C98.2419 90.6396 98.4823 90.6843 98.5874 90.6541C98.6925 90.6238 98.7976 90.5936 98.8725 90.4583C99.1129 90.5029 99.2483 90.5778 99.3534 90.5476C99.6687 90.4569 99.8184 90.1862 100.164 90.2007C100.615 90.1849 101.035 90.064 101.455 89.9431C101.666 89.8826 101.951 89.6868 102.191 89.7315C102.326 89.8064 102.326 89.8064 102.432 89.7761C102.642 89.7157 103.378 89.5041 103.347 89.399C103.798 89.3832 104.188 89.1572 104.699 89.3516C104.879 89.1861 105.089 89.1256 105.3 89.0652C105.51 89.0047 105.72 88.9443 105.991 89.094C106.066 88.9587 106.171 88.9285 106.276 88.8982C106.486 88.8378 106.696 88.7773 106.906 88.7169C107.072 88.8969 107.252 88.7313 107.357 88.7011C107.462 88.6709 107.567 88.6406 107.597 88.7457C107.763 88.9257 107.852 88.4449 108.123 88.5946C108.394 88.7444 108.469 88.609 108.649 88.4435C108.754 88.4133 109.024 88.563 109.129 88.5328C109.279 88.2621 109.52 88.3068 109.76 88.3514C110.526 88.245 111.292 88.1385 112.118 88.2422C112.359 88.2869 112.569 88.2264 112.779 88.166C112.884 88.1358 112.989 88.1055 113.095 88.0753C113.305 88.0149 113.41 87.9846 113.606 88.2697C113.666 88.4799 113.725 87.894 113.846 88.3144C113.876 88.4195 114.312 88.7492 114.523 88.6888C114.628 88.6585 114.703 88.5232 114.778 88.3879C114.883 88.3577 114.927 88.1172 115.002 87.9819C115.168 88.1619 115.198 88.267 115.228 88.3721C115.543 88.2814 115.604 88.4916 115.634 88.5967C115.86 88.9869 115.951 89.3022 116.072 89.7226C116.102 89.8277 115.847 90.1286 116.268 90.0077C116.268 90.0077 116.433 90.1877 116.328 90.2179C116.073 90.5188 116.659 90.5779 116.509 90.8486C116.901 91.4187 116.706 91.9298 116.647 92.5158C116.528 92.8916 116.558 92.9967 116.679 93.4171C116.8 93.8375 116.816 94.2881 116.486 94.7243C116.306 94.8899 116.472 95.0699 116.637 95.2499C116.667 95.355 116.698 95.4601 116.698 95.4601C116.592 95.4903 116.382 95.5507 116.382 95.5507C116.322 95.3405 115.826 95.5968 116.156 95.1606C116.021 95.0857 115.78 95.041 115.57 95.1015C115.465 95.1317 115.36 95.1619 115.285 95.2973L115.241 95.5377C114.82 95.6586 114.46 95.9897 114.611 96.5152C114.567 96.7557 114.371 96.4706 114.266 96.5008C114.011 96.8017 113.891 97.1774 113.667 97.5834C113.697 97.6885 113.727 97.7936 113.622 97.8239C113.622 97.8239 113.412 97.8843 113.382 97.7792C113.291 97.4639 113.081 97.5243 112.765 97.615C112.24 97.7661 111.759 97.6768 111.278 97.5875C111.173 97.6178 111.068 97.648 110.963 97.6782C110.648 97.7689 110.332 97.8596 110.017 97.9502C109.942 98.0856 109.732 98.146 109.627 98.1762C109.417 98.2367 109.311 98.2669 109.071 98.2223C108.756 98.3129 108.335 98.4338 108.02 98.5245C107.735 98.7203 107.345 98.9463 107.029 99.037C106.819 99.0974 106.714 99.1277 106.474 99.083C106.263 99.1435 105.948 99.2341 105.738 99.2946C105.633 99.3248 105.528 99.355 105.453 99.4904C105.333 99.8661 105.048 100.062 104.763 100.258C104.448 100.348 104.163 100.544 103.847 100.635C103.742 100.665 103.742 100.665 103.637 100.695C103.322 100.786 102.901 100.907 102.616 101.103ZM109.298 99.4086C108.938 99.7397 108.653 99.9355 108.308 99.9211C108.308 99.9211 108.203 99.9513 108.128 100.087C107.843 100.282 107.738 100.313 107.527 100.373C107.422 100.403 107.212 100.464 106.867 100.449C107.182 100.359 107.467 100.163 107.722 99.862C108.247 99.7109 108.773 99.5598 109.298 99.4086ZM113.138 87.0387C112.883 87.3396 112.673 87.4 112.598 87.5354C112.493 87.5656 112.252 87.5209 112.252 87.5209C112.192 87.3107 111.982 87.3712 111.846 87.2963C111.951 87.2661 111.921 87.161 112.026 87.1307C112.162 87.2056 112.372 87.1452 112.507 87.22C112.612 87.1898 112.822 87.1294 113.138 87.0387ZM113.695 87.7889C113.875 87.6233 113.95 87.488 114.055 87.4577C114.16 87.4275 114.295 87.5024 114.461 87.6824C114.251 87.7428 114.04 87.8033 113.695 87.7889ZM106.627 101.201C106.807 101.035 106.882 100.9 106.987 100.87C107.093 100.84 107.123 100.945 107.153 101.05C107.108 101.29 106.868 101.246 106.627 101.201ZM104.825 101.264C104.615 101.325 104.645 101.43 104.645 101.43C104.54 101.46 104.404 101.385 104.374 101.28L104.449 101.145C104.554 101.114 104.584 101.219 104.825 101.264ZM106.476 100.675C106.341 100.6 106.341 100.6 106.236 100.631C106.311 100.495 106.416 100.465 106.416 100.465C106.521 100.435 106.626 100.405 106.656 100.51C106.656 100.51 106.551 100.54 106.476 100.675ZM105.65 100.572C105.755 100.541 105.785 100.647 105.815 100.752C105.71 100.782 105.68 100.677 105.65 100.572ZM114.222 97.5374L114.148 97.6727C114.117 97.5676 114.222 97.5374 114.222 97.5374ZM104.148 100.89C104.043 100.92 104.013 100.815 103.908 100.845C104.013 100.815 104.088 100.679 104.088 100.679C104.193 100.649 104.223 100.754 104.223 100.754C104.253 100.859 104.148 100.89 104.148 100.89ZM113.198 87.2489C113.303 87.2187 113.303 87.2187 113.334 87.3238C113.228 87.354 113.198 87.2489 113.198 87.2489ZM109.268 99.3035C109.268 99.3035 109.298 99.4086 109.193 99.4389C109.268 99.3035 109.268 99.3035 109.268 99.3035ZM109.989 99.4375C109.854 99.3626 109.854 99.3626 109.854 99.3626C109.854 99.3626 109.959 99.3324 109.989 99.4375ZM105.546 101.398C105.546 101.398 105.516 101.293 105.621 101.263C105.651 101.368 105.546 101.398 105.546 101.398ZM114.852 96.5599C114.852 96.5599 114.821 96.4548 114.791 96.3497C114.821 96.4548 114.821 96.4548 114.852 96.5599Z" fill="white"/>
<path d="M67.8164 76.8329C68.2825 76.9625 68.2825 76.9625 68.1372 77.2543C67.6885 77.6989 67.3894 77.9953 67.4024 78.426C67.4111 78.7131 67.5911 79.5698 67.5998 79.8569C67.758 79.9958 68.0702 80.13 67.7711 80.4264C67.925 80.4218 68.0963 80.9913 68.2328 80.4125C68.2415 80.6996 68.7076 80.8291 68.7163 81.1162C68.7163 81.1162 68.7206 81.2598 68.5711 81.408C68.4172 81.4127 68.4302 81.8433 68.8919 81.8294L68.8963 81.9729C68.4432 82.274 68.9093 82.4036 68.918 82.6907C68.9267 82.9778 69.085 83.1167 69.0937 83.4038C69.098 83.5474 69.1023 83.6909 68.9528 83.8391C68.7989 83.8438 68.8032 83.9873 68.8076 84.1309C68.9702 84.4133 69.1284 84.5522 69.291 84.8347C69.2954 84.9782 69.0006 85.4182 69.4667 85.5478C69.471 85.6913 69.6249 85.6867 69.6249 85.6867C69.6119 85.256 69.7615 85.1078 69.9067 84.816L69.9197 85.2467C69.9284 85.5338 69.7875 85.9691 69.7962 86.2562C69.8049 86.5434 69.8093 86.6869 69.9762 87.1129C70.2797 86.96 70.2754 86.8165 70.2754 86.8165C70.258 86.2423 70.3945 85.6634 70.3771 85.0892L70.338 83.7972C70.3337 83.6536 70.325 83.3665 70.1624 83.0841C70.4659 82.9312 69.9954 82.6581 70.145 82.5099C70.2772 81.7874 70.0972 80.9308 70.5372 80.199C70.6868 80.0508 70.5242 79.7684 70.5155 79.4812C70.5112 79.3377 70.2033 79.347 70.5068 79.1941C70.6607 79.1895 70.819 79.3284 70.9772 79.4673L70.9859 79.7544C70.8407 80.0461 70.5416 80.3426 70.6998 80.4815C71.0207 80.9028 70.5633 81.0603 70.7216 81.1992C71.0337 81.3335 70.5807 81.6346 70.7389 81.7735C70.8972 81.9123 70.7476 82.0606 70.5981 82.2088C70.6024 82.3523 70.6067 82.4959 70.765 82.6348L71.2398 83.0515L71.318 85.6354C71.1728 85.9272 71.6432 86.2003 71.1902 86.5014C71.3441 86.4968 71.3484 86.6403 71.3484 86.6403C71.6606 86.7746 71.6649 86.9181 71.5154 87.0663C71.3658 87.2145 71.3702 87.3581 71.678 87.3488L71.8406 87.6312C71.3875 87.9323 71.5545 88.3583 71.5632 88.6454C71.4179 88.9372 71.4266 89.2243 71.7432 89.5021L71.8971 89.4974C71.9058 89.7845 71.4484 89.9421 71.7605 90.0763C71.7649 90.2199 72.0597 89.7799 72.0727 90.2105C72.2484 90.9236 72.4197 91.4932 72.7449 92.0581C72.7492 92.2017 72.9118 92.4841 72.9162 92.6277C72.9205 92.7712 72.9205 92.7712 72.7797 93.2065C73.4257 94.1927 73.5883 94.4752 73.6231 95.6237L73.6492 96.485C73.8074 96.6239 73.6622 96.9157 73.97 96.9063C74.1239 96.9017 74.4231 96.6053 74.4144 96.3181C74.2562 96.1793 74.2561 96.1792 74.2518 96.0357C74.2431 95.7486 74.2301 95.3179 74.3753 95.0262C74.5422 95.4522 74.5596 96.0264 75.0344 96.4431C74.744 97.0266 75.6761 97.2858 75.5353 97.7211C76.01 98.1378 76.0274 98.712 76.1987 99.2815C76.6996 100.56 77.35 101.689 78.1587 102.958C78.6422 103.662 79.6395 106.074 79.8195 106.931C79.8282 107.218 79.9952 107.644 80.3117 107.922C80.6282 108.2 80.6456 108.774 80.8126 109.2C80.9752 109.482 81.463 110.33 81.476 110.76C81.4803 110.904 81.6473 111.33 82.1134 111.459C81.9682 111.751 82.1308 112.034 82.4473 112.311C82.7682 112.733 83.243 113.15 83.5682 113.714C83.7308 113.997 83.889 114.136 83.5856 114.289C83.1282 114.446 82.9873 114.881 82.6881 115.178C80.8629 115.952 78.5672 116.452 76.5706 116.656C76.5706 116.656 76.4167 116.661 76.2671 116.809C75.968 117.106 75.9636 116.962 75.9549 116.675C75.4932 116.689 75.0358 116.846 74.7279 116.856C74.8949 117.282 74.741 117.286 74.4331 117.296C73.8175 117.314 73.3601 117.472 72.9027 117.629C72.4279 117.213 71.8296 117.806 71.5131 117.528C71.0644 117.972 70.5896 117.556 70.1365 117.857C69.9826 117.861 69.5165 117.732 69.3582 117.593C69.0417 117.315 68.58 117.329 68.2808 117.626C67.973 117.635 67.6695 117.788 67.6565 117.357C67.9687 117.491 68.1182 117.343 68.2591 116.908C68.2548 116.764 68.1008 116.769 68.1052 116.912C67.7974 116.922 67.6478 117.07 67.5026 117.362C66.9086 118.098 66.126 117.691 65.5103 117.709C65.3564 117.714 65.3477 117.427 65.3477 117.427C65.339 117.14 65.3347 116.996 64.8729 117.01C64.719 117.015 64.5608 116.876 64.4025 116.737C64.0903 116.603 63.7738 116.325 63.479 116.765C63.3338 117.057 63.0216 116.923 63.0129 116.636C63.0042 116.348 62.5338 116.075 62.5251 115.788C62.5207 115.645 62.6747 115.64 62.6703 115.496C62.666 115.353 62.499 114.927 62.499 114.927C61.8834 114.946 61.8747 114.658 61.8703 114.515C61.8616 114.228 61.8529 113.941 61.6947 113.802C61.8312 113.223 61.3521 112.663 61.493 112.227C61.4626 111.222 61.1286 110.37 61.1026 109.509C61.0939 109.222 60.7817 109.088 61.0808 108.791C61.2304 108.643 60.9096 108.222 60.9009 107.935C60.8835 107.36 60.8704 106.93 60.6991 106.36C60.5409 106.221 60.6948 106.217 60.6904 106.073L60.6644 105.212C60.634 104.207 60.4453 103.063 60.4149 102.058C60.3888 101.197 60.3627 100.336 60.0245 99.34L59.9463 96.7561C59.9332 96.3254 60.0785 96.0336 60.0698 95.7465C60.0654 95.603 60.0611 95.4594 59.9072 95.4641L59.8289 92.8801C59.6663 92.5977 59.8072 92.1623 59.7985 91.8752C59.7898 91.5881 60.2429 91.287 59.9264 91.0093C59.8786 89.4302 59.8351 87.9946 59.9456 86.5544C59.9369 86.2673 59.9065 85.2624 59.59 84.9846C59.8978 84.9753 59.8891 84.6882 59.8848 84.5447C59.7221 84.2622 59.7178 84.1187 59.7091 83.8315C59.6961 83.4009 59.837 82.9656 59.8239 82.5349C59.8196 82.3913 59.8109 82.1042 60.1231 82.2385C60.1231 82.2385 60.2509 81.3725 60.097 81.3771C59.9387 81.2382 59.7848 81.2429 60.0883 81.09L59.9257 80.8076C59.7544 80.238 60.2075 79.9369 60.0405 79.5109C60.4849 78.9227 60.1597 78.3579 60.2962 77.779C60.4414 77.4872 59.971 77.2141 60.5866 77.1954C60.5866 77.1954 60.7275 76.7601 60.5736 76.7648C60.4153 76.6259 60.5649 76.4777 60.7145 76.3295C60.4023 76.1952 60.7015 75.8988 60.7015 75.8988C60.231 75.6257 60.6884 75.4681 60.838 75.3199C60.9745 74.741 61.1067 74.0186 61.3928 73.2915C61.3885 73.148 61.3798 72.8609 61.5337 72.8562C61.8328 72.5598 61.9781 72.268 61.9737 72.1245C61.965 71.8373 61.8068 71.6984 61.7981 71.4113C62.0929 70.9714 62.5416 70.5267 62.6825 70.0914C62.8234 69.6561 63.2894 69.7857 63.7425 69.4846C63.9095 69.9106 64.679 69.8873 64.5425 70.4662C64.5468 70.6097 64.7095 70.8922 64.8677 71.0311C65.1842 71.3088 65.3468 71.5913 65.3599 72.022C65.3642 72.1655 65.3729 72.4526 65.2233 72.6008C65.6851 72.5869 65.9973 72.7211 66.1512 72.7164C66.3225 73.286 66.6434 73.7073 66.9686 74.2722C67.1138 73.9805 67.2634 73.8323 67.4086 73.5405C67.5712 73.8229 67.5799 74.11 67.5842 74.2536C67.5886 74.3972 67.7555 74.8232 67.6016 74.8278L67.632 75.8327C67.6451 76.2634 67.6538 76.5505 67.8164 76.8329Z" fill="white"/>
<path d="M72.4693 88.0433C72.4736 88.1868 72.6319 88.3257 72.9484 88.6035C72.931 88.0293 72.918 87.5986 72.2893 87.1866C72.6058 87.4644 72.4606 87.7561 72.4693 88.0433Z" fill="white"/>
<path d="M67.8642 78.412L68.172 78.4027C68.1676 78.2591 68.0137 78.2638 68.0094 78.1202C68.0137 78.2638 67.8598 78.2685 67.8642 78.412Z" fill="white"/>
<path d="M60.6278 109.092C60.4695 108.954 60.4695 108.954 60.4652 108.81C60.6234 108.949 60.6234 108.949 60.6278 109.092Z" fill="white"/>
<path d="M69.5424 82.9592L69.3841 82.8203C69.538 82.8156 69.5424 82.9592 69.5424 82.9592Z" fill="white"/>
<path d="M67.5904 69.3681C67.7443 69.3634 67.7443 69.3634 67.9026 69.5023C67.5948 69.5116 67.5948 69.5117 67.5904 69.3681Z" fill="white"/>
<path d="M69.6572 81.6625C69.6615 81.8061 69.6615 81.8061 69.5076 81.8107L69.6572 81.6625Z" fill="white"/>
<path d="M61.6399 89.9762C61.7523 90.0703 61.7523 91.9566 61.6788 91.9988C61.5046 92.0308 61.3885 92.0521 61.3422 92.1467C61.3113 92.2097 61.2613 92.4198 61.2304 92.4829C61.2576 92.5353 61.3274 92.6085 61.2113 92.6299C61.2539 92.6507 61.2348 92.7977 61.3391 92.6925C61.3083 92.7555 61.4207 92.8496 61.3898 92.9127C61.3898 92.9127 61.3744 92.9442 61.3163 92.9549C61.2737 92.934 61.2274 93.0286 61.3552 93.0912L61.3398 93.1228C61.1811 93.1232 61.2935 93.2174 61.2626 93.2804C61.2317 93.3435 61.2589 93.3959 61.228 93.4589C61.2126 93.4905 61.1972 93.522 61.1391 93.5327C61.0965 93.5118 61.081 93.5433 61.0656 93.5749C61.0773 93.6588 61.1045 93.7112 61.1163 93.7951C61.1008 93.8267 60.9693 93.8795 61.0817 93.9736C61.0663 94.0052 61.1089 94.026 61.1089 94.026C61.1552 93.9314 61.2132 93.9208 61.2867 93.8786L61.2404 93.9732C61.2095 94.0362 61.1206 94.11 61.0897 94.173C61.0589 94.2361 61.0434 94.2676 61.0397 94.3831C61.1404 94.3933 61.1558 94.3618 61.1558 94.3618C61.2176 94.2356 61.322 94.1304 61.3837 94.0043L61.5227 93.7205C61.5381 93.6889 61.569 93.6259 61.5572 93.542C61.6579 93.5522 61.5609 93.4265 61.619 93.4158C61.7388 93.279 61.7888 93.069 61.9939 92.9739C62.0519 92.9633 62.0402 92.8793 62.0711 92.8163C62.0865 92.7847 62.0013 92.743 62.1019 92.7532C62.1445 92.7741 62.1717 92.8265 62.1989 92.8789L62.168 92.9419C62.0945 92.9841 61.9784 93.0055 62.0056 93.0579C62.0445 93.1942 61.9012 93.1631 61.9284 93.2155C61.9982 93.2888 61.8395 93.2892 61.8667 93.3416C61.8938 93.394 61.8358 93.4047 61.7777 93.4154C61.7623 93.4469 61.7468 93.4784 61.774 93.5308L61.8556 93.688L61.5777 94.2556C61.5042 94.2978 61.6012 94.4234 61.4424 94.4239C61.485 94.4448 61.4696 94.4763 61.4696 94.4763C61.5394 94.5496 61.524 94.5811 61.4659 94.5918C61.4079 94.6024 61.3924 94.634 61.4777 94.6757L61.4894 94.7596C61.3307 94.7601 61.327 94.8755 61.2961 94.9386C61.2226 94.9808 61.1917 95.0439 61.2461 95.1487L61.2887 95.1695C61.2578 95.2326 61.1145 95.2015 61.1843 95.2748C61.1689 95.3063 61.3004 95.2535 61.2541 95.348C61.2195 95.5266 61.2004 95.6736 61.2239 95.8414C61.2085 95.873 61.2202 95.9569 61.2048 95.9884C61.1893 96.0199 61.1893 96.0199 61.1004 96.0937C61.1628 96.3978 61.1745 96.4818 61.051 96.734L60.9584 96.9232C60.9856 96.9756 60.9121 97.0178 60.9973 97.0596C61.0399 97.0804 61.1561 97.0591 61.1869 96.996C61.1598 96.9436 61.1598 96.9436 61.1752 96.9121C61.2061 96.849 61.2524 96.7544 61.3259 96.7122C61.3222 96.8277 61.2604 96.9538 61.342 97.111C61.195 97.1954 61.4198 97.3837 61.3309 97.4574C61.4124 97.6146 61.3507 97.7407 61.3315 97.8877C61.3204 98.2341 61.3674 98.5698 61.4416 98.9579C61.4922 99.1782 61.4855 99.8394 61.4355 100.049C61.4046 100.113 61.4009 100.228 61.4553 100.333C61.5096 100.438 61.4479 100.564 61.4442 100.679C61.4559 100.763 61.4911 101.015 61.4448 101.109C61.4294 101.141 61.4257 101.256 61.5381 101.351C61.4646 101.393 61.4763 101.477 61.5307 101.582C61.5696 101.718 61.6512 101.875 61.6747 102.043C61.6864 102.127 61.7136 102.179 61.6129 102.169C61.4696 102.138 61.3807 102.212 61.2646 102.233C60.6759 102.14 59.9903 101.922 59.4209 101.682C59.4209 101.682 59.3782 101.661 59.3202 101.672C59.2041 101.693 59.2195 101.662 59.2504 101.599C59.1225 101.536 58.9792 101.505 58.894 101.463C58.8903 101.579 58.8477 101.558 58.7624 101.516C58.592 101.433 58.4487 101.402 58.3054 101.371C58.2238 101.213 57.9916 101.256 57.9373 101.151C57.7631 101.183 57.6815 101.026 57.5228 101.026C57.4802 101.006 57.3678 100.911 57.3406 100.859C57.2862 100.754 57.1584 100.692 57.0423 100.713C56.957 100.671 56.8563 100.661 56.9027 100.566C56.9725 100.64 57.0305 100.629 57.1195 100.555C57.1349 100.524 57.0923 100.503 57.0768 100.534C56.9916 100.493 56.9335 100.503 56.86 100.546C56.6124 100.62 56.4456 100.421 56.2751 100.337C56.2325 100.316 56.2634 100.253 56.2634 100.253C56.2943 100.19 56.3097 100.159 56.1818 100.096C56.1392 100.075 56.112 100.023 56.0849 99.9706C56.0151 99.8973 55.9607 99.7925 55.8292 99.8454C55.7557 99.8876 55.6859 99.8143 55.7167 99.7512C55.7476 99.6882 55.6506 99.5625 55.6815 99.4994C55.6969 99.4679 55.7396 99.4888 55.755 99.4572C55.7704 99.4257 55.7741 99.3103 55.7741 99.3103C55.6037 99.2268 55.6345 99.1637 55.65 99.1322C55.6809 99.0691 55.7117 99.0061 55.6846 98.9537C55.7889 98.8484 55.7228 98.6597 55.8118 98.586C55.9198 98.3652 55.9272 98.1343 56.0198 97.9451C56.0507 97.8821 55.9809 97.8088 56.097 97.7875C56.1551 97.7768 56.1162 97.6405 56.1471 97.5774C56.2088 97.4513 56.2551 97.3567 56.2743 97.2097C56.2471 97.1573 56.2897 97.1782 56.3051 97.1466L56.3978 96.9575C56.5058 96.7367 56.5867 96.4636 56.6948 96.2429C56.7874 96.0537 56.8801 95.8645 56.9029 95.6021L57.1808 95.0345C57.2271 94.9399 57.3006 94.8977 57.3315 94.8347C57.3469 94.8031 57.3623 94.7716 57.3197 94.7507L57.5976 94.1832C57.5859 94.0992 57.6748 94.0255 57.7057 93.9625C57.7366 93.8994 57.8953 93.8989 57.8409 93.7941C58.0108 93.4473 58.1651 93.132 58.3621 92.8375C58.393 92.7745 58.5011 92.5538 58.4467 92.449C58.532 92.4907 58.5628 92.4276 58.5783 92.3961C58.5665 92.3122 58.582 92.2806 58.6129 92.2176C58.6592 92.123 58.7481 92.0493 58.7944 91.9547C58.8099 91.9231 58.8407 91.8601 58.9105 91.9333C58.9105 91.9333 59.0458 90.8219 59.0032 90.801C58.976 90.7486 58.9334 90.7278 59.034 90.738L59.0223 90.654C59.0414 90.5071 59.2002 90.5066 59.2039 90.3911C59.3935 90.3276 59.37 89.2166 59.4744 89.1114C59.5479 89.0692 59.4509 88.9435 59.6213 89.027C59.6213 89.027 59.7103 88.9533 59.6677 88.9324C59.6405 88.88 59.6985 88.8693 59.7566 88.8587C59.6868 88.7854 59.8029 88.7641 59.8029 88.7641C59.7059 88.6384 59.8492 88.6695 59.9073 88.6588C60.0117 88.5536 60.1315 88.4168 60.2939 88.3008C60.3093 88.2693 60.3402 88.2063 60.3828 88.2271C60.4989 88.2058 60.5724 88.1636 60.5879 88.1321C60.6188 88.069 60.5916 88.0166 60.6225 87.9535C60.754 87.9007 60.9282 87.8687 61.0171 87.795C61.106 87.7212 61.2185 87.8154 61.3772 87.8149C61.3735 87.9304 61.5866 88.0347 61.4822 88.14C61.4668 88.1715 61.4785 88.2554 61.5057 88.3078C61.5601 88.4126 61.5718 88.4965 61.5255 88.5911C61.5101 88.6227 61.4792 88.6857 61.4211 88.6964C61.549 88.759 61.6188 88.8323 61.6614 88.8531C61.6423 89.0001 61.6812 89.1365 61.7047 89.3043C61.7782 89.2621 61.8362 89.2515 61.9097 89.2093C61.9215 89.2932 61.8906 89.3562 61.8751 89.3878C61.8597 89.4193 61.856 89.5348 61.8134 89.5139L61.7053 89.7346C61.659 89.8292 61.6281 89.8923 61.6399 89.9762Z" fill="white"/>
<path d="M61.6136 94.9377C61.5981 94.9692 61.6253 95.0216 61.6797 95.1264C61.7414 95.0003 61.7877 94.9057 61.6636 94.7276C61.7179 94.8324 61.6444 94.8746 61.6136 94.9377Z" fill="white"/>
<path d="M61.47 92.2093L61.5553 92.251C61.5707 92.2195 61.5281 92.1986 61.5435 92.1671C61.5281 92.1986 61.4855 92.1777 61.47 92.2093Z" fill="white"/>
<path d="M55.9383 97.7879C55.9111 97.7355 55.9111 97.7355 55.9266 97.704C55.9537 97.7564 55.9537 97.7564 55.9383 97.7879Z" fill="white"/>
<path d="M61.4022 93.427L61.375 93.3746C61.4176 93.3954 61.4022 93.427 61.4022 93.427Z" fill="white"/>
<path d="M62.4427 88.3366C62.4853 88.3575 62.4853 88.3575 62.5125 88.4099C62.4272 88.3681 62.4272 88.3681 62.4427 88.3366Z" fill="white"/>
<path d="M61.5838 93.164C61.5683 93.1956 61.5683 93.1956 61.5257 93.1747L61.5838 93.164Z" fill="white"/>
<path d="M108.548 199.73V184H113.912V189.724H125.427V184H130.813V199.73H125.427V193.532H113.912V199.73H108.548Z" fill="white"/>
<path d="M94.0141 200C92.6394 200 91.4 199.91 90.2507 199.707C89.1013 199.504 88.1323 199.256 87.3661 198.941C86.5774 198.603 85.9013 198.22 85.2929 197.769C84.6844 197.296 84.2112 196.845 83.8731 196.372C83.5351 195.898 83.2647 195.403 83.0393 194.862C82.8139 194.321 82.6562 193.825 82.5886 193.397C82.521 192.946 82.4985 192.518 82.4985 192.09V191.459C82.4985 190.783 82.5661 190.129 82.7013 189.521C82.8365 188.912 83.152 188.236 83.6252 187.493C84.121 186.749 84.752 186.096 85.5407 185.555C86.3295 185.014 87.4563 184.563 88.9211 184.203C90.3633 183.819 92.076 183.639 94.0141 183.639H94.9606C96.8761 183.639 98.5437 183.797 100.009 184.112C101.451 184.45 102.578 184.834 103.366 185.284C104.155 185.757 104.809 186.276 105.304 186.884C105.823 187.493 106.138 188.034 106.296 188.507C106.431 188.98 106.499 189.431 106.499 189.859V190.107H100.775C100.73 189.927 100.685 189.791 100.617 189.656C100.549 189.521 100.369 189.296 100.076 189.003C99.7832 188.71 99.4451 188.462 99.0395 188.259C98.6339 188.056 98.0254 187.876 97.2367 187.718C96.4254 187.56 95.524 187.47 94.4873 187.47C93.2479 187.47 92.1887 187.583 91.3324 187.831C90.4535 188.056 89.7999 188.372 89.3492 188.777C88.9211 189.205 88.6056 189.634 88.4253 190.084C88.2225 190.535 88.1323 191.031 88.1323 191.572V191.82C88.1323 192.338 88.245 192.834 88.4478 193.307C88.6506 193.78 88.9887 194.231 89.4394 194.682C89.8901 195.132 90.5436 195.493 91.4225 195.763C92.3014 196.034 93.338 196.169 94.5324 196.169C98.0705 196.169 100.144 195.245 100.775 193.42C100.797 193.397 100.797 193.374 100.797 193.352H106.521V193.577C106.521 194.051 106.454 194.546 106.296 195.042C106.116 195.538 105.778 196.079 105.282 196.71C104.764 197.318 104.11 197.859 103.299 198.332C102.51 198.783 101.383 199.189 99.9409 199.527C98.4986 199.842 96.831 200 94.9606 200H94.0141Z" fill="white"/>
<path d="M62.3998 183.932H80.5409V187.515H67.7182V189.859H80.2479V193.465H67.7182V196.056H80.7888V199.73H62.3998V183.932Z" fill="white"/>
<path d="M47.9555 199.752V187.718H40.5638V183.977H60.8007V187.718H53.3865V199.752H47.9555Z" fill="white"/>
<path d="M132.718 174.177C131.005 174.177 129.495 174.041 128.233 173.771C126.949 173.5 125.957 173.185 125.258 172.802C124.582 172.419 124.019 171.946 123.613 171.405C123.208 170.864 122.937 170.368 122.825 169.94C122.712 169.512 122.667 169.038 122.667 168.543V168.317H128.278C128.391 169.985 129.608 170.819 132.898 170.819H134.137C135.219 170.819 135.67 170.751 136.391 170.661C137.09 170.571 137.608 170.458 137.923 170.278C138.261 170.098 138.464 169.94 138.577 169.76C138.69 169.579 138.735 169.376 138.735 169.129C138.735 168.791 138.645 168.52 138.464 168.317C138.284 168.137 137.833 167.957 137.157 167.799C136.481 167.664 135.512 167.574 134.228 167.551L132.537 167.506L131.275 167.483C125.687 167.348 122.892 165.793 122.892 162.864V162.661C122.892 162.165 122.96 161.692 123.095 161.264C123.23 160.836 123.501 160.407 123.929 159.957C124.335 159.528 124.875 159.168 125.551 158.875C126.228 158.582 127.129 158.334 128.278 158.154C129.405 157.951 130.735 157.861 132.244 157.861H133.845C135.399 157.861 136.797 157.951 137.991 158.154C139.208 158.357 140.154 158.605 140.876 158.92C141.597 159.236 142.183 159.619 142.633 160.069C143.084 160.52 143.4 160.971 143.557 161.399C143.738 161.85 143.828 162.323 143.828 162.841V163.044H138.239C138.194 162.886 138.149 162.729 138.104 162.616C138.059 162.503 137.923 162.345 137.721 162.143C137.518 161.94 137.27 161.782 136.932 161.647C136.616 161.534 136.121 161.421 135.49 161.309C134.859 161.219 134.363 161.174 133.506 161.174H132.718C131.411 161.174 130.599 161.241 129.901 161.376C129.225 161.534 128.797 161.692 128.661 161.85C128.504 162.007 128.436 162.233 128.436 162.526C128.436 162.796 128.504 162.999 128.684 163.179C128.842 163.337 129.225 163.495 129.833 163.652C130.442 163.788 131.298 163.855 132.402 163.878L133.664 163.9L135.287 163.923C138.509 163.968 140.808 164.374 142.228 165.117C143.67 165.861 144.369 167.01 144.369 168.61V168.903C144.369 169.489 144.301 170.007 144.166 170.458C144.031 170.909 143.738 171.382 143.309 171.878C142.881 172.351 142.318 172.757 141.597 173.072C140.876 173.41 139.907 173.658 138.667 173.861C137.428 174.086 135.963 174.177 134.295 174.177H132.718Z" fill="white"/>
<path d="M120.54 158.154V173.884H115.176V158.154H120.54Z" fill="white"/>
<path d="M111.98 167.326C112.521 167.912 112.792 168.678 112.792 169.624V173.884H107.901V171.112C107.901 170.165 107.653 169.467 107.158 169.038C106.662 168.61 105.828 168.385 104.634 168.385H98.2787V173.884H93.411V158.379H105.963C110.47 158.379 112.724 159.731 112.724 162.413V162.661C112.724 164.306 111.755 165.433 109.839 166.064C110.718 166.312 111.439 166.717 111.98 167.326ZM107.631 163.427V163.405C107.631 162.954 107.473 162.593 107.158 162.323C106.842 162.052 106.346 161.895 105.67 161.895H98.2787V164.96H105.67C106.346 164.96 106.842 164.802 107.158 164.531C107.473 164.261 107.631 163.878 107.631 163.427Z" fill="white"/>
<path d="M83.704 158.289L92.0872 173.861H86.7914L85.3266 171.022H74.0814L72.6166 173.861H67.3432L75.7039 158.289H83.704ZM75.9067 167.506H83.5237L80.549 161.782H78.8589L75.9067 167.506Z" fill="white"/>
<path d="M61.631 173.703H55.0056L46.1942 158.131H52.2112L58.4535 169.579L64.3127 158.131H69.8339L61.631 173.703Z" fill="white"/>
<path d="M26.817 158.086H44.958V161.669H32.1353V164.013H44.6651V167.619H32.1353V170.21H45.2059V173.884H26.817V158.086Z" fill="white"/>
<path d="M153.924 132.376H159.287V144.229H171.254V148.151H153.924V132.376Z" fill="white"/>
<path d="M144.217 132.533L152.601 148.105H147.305L145.84 145.266H134.595L133.13 148.105H127.857L136.217 132.533H144.217ZM136.42 141.75H144.037L141.062 136.026H139.372L136.42 141.75Z" fill="white"/>
<path d="M115.622 148.398C114.247 148.398 113.007 148.308 111.858 148.105C110.709 147.903 109.74 147.655 108.974 147.339C108.185 147.001 107.509 146.618 106.9 146.167C106.292 145.694 105.819 145.243 105.481 144.77C105.143 144.297 104.872 143.801 104.647 143.26C104.421 142.719 104.264 142.224 104.196 141.795C104.128 141.345 104.106 140.917 104.106 140.488V139.857C104.106 139.181 104.174 138.528 104.309 137.919C104.444 137.311 104.759 136.635 105.233 135.891C105.728 135.147 106.359 134.494 107.148 133.953C107.937 133.412 109.064 132.962 110.529 132.601C111.971 132.218 113.683 132.038 115.622 132.038H116.568C118.484 132.038 120.151 132.195 121.616 132.511C123.058 132.849 124.185 133.232 124.974 133.683C125.763 134.156 126.416 134.674 126.912 135.283C127.43 135.891 127.746 136.432 127.903 136.905C128.039 137.379 128.106 137.829 128.106 138.257V138.505H122.382C122.337 138.325 122.292 138.19 122.224 138.055C122.157 137.919 121.977 137.694 121.684 137.401C121.391 137.108 121.053 136.86 120.647 136.657C120.241 136.455 119.633 136.274 118.844 136.117C118.033 135.959 117.131 135.869 116.095 135.869C114.855 135.869 113.796 135.981 112.94 136.229C112.061 136.455 111.407 136.77 110.957 137.176C110.529 137.604 110.213 138.032 110.033 138.483C109.83 138.933 109.74 139.429 109.74 139.97V140.218C109.74 140.736 109.852 141.232 110.055 141.705C110.258 142.179 110.596 142.629 111.047 143.08C111.498 143.531 112.151 143.891 113.03 144.162C113.909 144.432 114.945 144.567 116.14 144.567C119.678 144.567 121.751 143.643 122.382 141.818C122.405 141.795 122.405 141.773 122.405 141.75H128.129V141.976C128.129 142.449 128.061 142.945 127.903 143.441C127.723 143.936 127.385 144.477 126.889 145.108C126.371 145.717 125.717 146.257 124.906 146.731C124.117 147.181 122.991 147.587 121.548 147.925C120.106 148.241 118.438 148.398 116.568 148.398H115.622Z" fill="white"/>
<path d="M102.068 132.398V148.128H96.7044V132.398H102.068Z" fill="white"/>
<path d="M82.283 148.15V136.117H74.8913V132.376H95.1282V136.117H87.714V148.15H82.283Z" fill="white"/>
<path d="M60.28 148.151V136.117H52.8883V132.376H73.1252V136.117H65.711V148.151H60.28Z" fill="white"/>
<path d="M47.0152 132.533L55.3984 148.105H50.1026L48.6378 145.266H37.3925L35.9277 148.105H30.6544L39.0151 132.533H47.0152ZM39.2179 141.75H46.8349L43.8602 136.026H42.1701L39.2179 141.75Z" fill="white"/>
<path d="M12.8227 147.948H6.96347L0 132.376H5.79162L10.1635 143.08L13.2509 134.967H20.1017L23.482 142.787L27.7637 132.376H32.992L26.1186 147.948H20.7777L17.1495 138.708H16.2481L12.8227 147.948Z" fill="white"/>
</svg>
