<svg viewBox="0 0 1780 600" fill="none" xmlns="http://www.w3.org/2000/svg">
<g clip-path="url(#clip0_137_962)">
<rect width="1780" height="600" fill="#00060D"/>
<path d="M1135.34 393.173C1139.21 390.23 1143.35 391.665 1149.71 396.006C1146.12 403.327 1136.17 406.306 1132.58 413.627C1128.44 412.192 1128.44 412.192 1126.51 413.664C1128.72 416.57 1132.86 418.005 1141.15 420.874C1143.08 419.403 1144.74 413.554 1146.67 412.082C1164.63 407.594 1182.31 398.728 1197.78 386.956C1204.14 391.297 1207.17 375.221 1218.23 389.752L1208.56 397.11C1200.27 394.24 1200.55 398.618 1204.97 404.43C1203.04 405.902 1203.04 405.902 1196.68 401.561L1196.68 401.563C1195.02 407.412 1193.37 413.26 1193.64 417.637L1198.07 423.45L1207.73 416.092C1206.08 421.942 1208.29 424.848 1206.36 426.319C1208.29 424.848 1212.43 426.283 1216.3 423.339C1218.23 421.868 1217.96 417.49 1217.68 413.112C1219.61 411.641 1219.34 407.263 1223.48 408.698C1233.43 405.718 1240.88 395.454 1250.83 392.474C1254.97 393.909 1259.12 395.344 1265.2 395.307C1267.13 393.836 1270.72 386.515 1277.08 390.856C1274.31 379.194 1286.47 379.12 1285.91 370.365C1283.43 363.081 1287.57 364.515 1293.65 364.479C1299.73 364.442 1307.74 362.934 1317.96 364.332C1324.04 364.295 1329.84 359.88 1333.71 356.937L1345.31 348.108C1345.59 352.486 1347.8 355.392 1345.86 356.864C1342 359.807 1340.06 361.278 1335.92 359.843C1332.05 362.786 1338.68 371.505 1332.33 367.164C1322.11 365.766 1331.23 381.769 1325.15 381.806C1331.5 386.147 1333.44 384.676 1337.31 381.732C1341.17 378.789 1349.46 381.659 1353.05 374.338C1362.72 366.981 1374.6 362.529 1386.48 358.078L1400.01 347.777C1401.95 346.306 1403.88 344.834 1408.3 350.647C1410.52 353.553 1418.25 347.667 1420.18 346.195L1424.05 343.252C1433.72 335.895 1445.32 327.066 1461.9 332.805C1473.22 319.598 1496.16 329.678 1509.69 319.377C1515.5 314.963 1521.57 314.926 1529.59 313.418C1545.61 310.401 1567.43 302.97 1579.04 294.141C1580.97 292.669 1584.84 289.726 1584.56 285.348C1588.7 286.783 1590.64 285.312 1592.57 283.84L1600.31 277.954C1602.24 276.482 1602.24 276.482 1606.39 277.917C1606.11 273.539 1608.04 272.068 1609.98 270.596C1613.84 267.653 1619.92 267.617 1623.79 264.673C1627.38 257.353 1637.6 258.751 1645.61 257.242L1647.55 255.771C1655 245.507 1669.09 243.962 1680.97 239.511C1686.77 235.096 1699.21 239.4 1706.94 233.514C1716.89 230.534 1724.9 229.026 1735.12 230.424C1741.76 239.143 1725.73 242.16 1736.79 256.691C1727.12 264.049 1721.6 272.841 1716.35 286.011C1724.92 293.258 1719.11 297.673 1717.18 299.144C1711.38 303.559 1696.74 328.465 1697.02 332.842C1691.22 337.257 1689.84 347.484 1684.04 351.899C1684.04 351.899 1682.11 353.37 1677.96 351.935C1676.03 353.407 1674.65 363.634 1670.78 366.577C1669.12 372.427 1665.26 375.37 1661.39 378.313C1656.14 391.483 1652.55 398.804 1647.03 407.596C1643.16 410.539 1635.15 412.047 1635.43 416.425C1634.05 426.652 1627.97 426.689 1622.17 431.104C1616.64 439.896 1606.98 447.253 1601.45 456.046L1593.72 461.932C1594.27 470.688 1590.41 473.631 1586.54 476.574C1582.67 479.517 1582.95 483.895 1576.87 483.931C1573 486.874 1575.49 494.158 1571.62 497.101C1567.76 500.044 1561.68 500.081 1555.88 504.496C1550.35 513.288 1542.9 523.552 1535.16 529.438C1531.29 532.381 1527.43 535.324 1521.35 535.361C1519.97 545.588 1518.04 547.06 1516.1 548.531L1510.3 552.946C1508.64 558.795 1504.78 561.738 1500.91 564.681L1497.04 567.624C1489.03 569.133 1487.37 574.982 1487.93 583.737C1481.85 583.774 1479.92 585.246 1477.98 586.717C1472.18 591.132 1468.59 598.453 1462.79 602.867C1460.86 604.339 1458.92 605.81 1450.91 607.319C1453.68 618.981 1443.18 613.205 1441.24 614.676C1441.8 623.432 1439.86 624.903 1433.79 624.94C1429.64 623.505 1425.77 626.448 1423.84 627.92C1421.91 629.391 1419.97 630.863 1416.38 638.184C1412.24 636.749 1416.94 646.939 1410.58 642.598C1406.44 641.164 1404.78 647.013 1402.85 648.484L1393.18 655.842C1389.31 658.785 1387.65 664.635 1381.85 669.049C1371.08 658.895 1378.54 680.748 1369.97 673.5C1366.11 676.443 1364.45 682.293 1360.58 685.236L1327.71 710.252C1325.78 711.723 1321.63 710.289 1317.49 708.854L1317.49 708.854C1317.77 713.231 1317.77 713.231 1315.83 714.703L1310.03 719.118C1308.1 720.589 1306.16 722.061 1306.44 726.438C1302.3 725.004 1300.36 726.475 1298.43 727.947C1294.56 730.89 1292.9 736.739 1290.97 738.211C1289.31 744.06 1281.03 741.19 1279.09 742.662C1277.16 744.133 1275.22 745.605 1277.71 752.889L1277.71 752.889C1273.57 751.454 1269.42 750.02 1267.49 751.491C1263.62 754.434 1263.9 758.812 1260.03 761.755C1258.1 763.227 1256.16 764.698 1252.02 763.263L1242.35 770.621C1230.75 779.45 1215 786.844 1201.47 797.145L1184.06 810.389L1178.26 814.803C1176.33 816.275 1172.19 814.84 1172.19 814.84C1168.32 817.783 1161.96 813.442 1158.09 816.385C1156.16 817.857 1158.37 820.763 1158.65 825.141C1148.7 828.121 1138.76 831.1 1131.02 836.986C1127.16 839.93 1125.5 845.779 1119.7 850.193C1113.34 845.852 1114.17 858.986 1107.82 854.645C1098.15 862.002 1084.06 863.547 1074.39 870.905C1072.46 872.377 1068.59 875.32 1068.87 879.697C1066.93 881.169 1062.79 879.734 1058.92 882.677C1056.99 884.149 1055.06 885.62 1055.33 889.998C1044.56 879.844 1039.31 893.015 1031.02 890.145C1029.36 895.994 1027.43 897.466 1025.5 898.938L1017.76 904.824C1015.83 906.295 1013.89 907.767 1016.1 910.673C1000.08 913.689 988.479 922.518 974.389 924.064L964.72 931.421C964.998 935.799 961.13 938.742 959.197 940.214L959.196 940.214C947.317 944.665 935.438 949.116 925.77 956.474C917.758 957.982 911.957 962.397 904.222 968.283C898.421 972.697 892.62 977.112 884.608 978.62L880.74 981.563C868.307 977.259 862.506 981.674 858.638 984.617L848.97 991.974C847.036 993.446 845.38 999.295 843.169 996.389C839.024 994.954 837.091 996.426 835.157 997.897C831.29 1000.84 831.567 1005.22 829.633 1006.69C827.7 1008.16 823.555 1006.73 823.555 1006.73L817.754 1011.14L786.815 1034.69L779.081 1040.57C764.99 1042.12 753.111 1046.57 745.376 1052.45C743.443 1053.93 739.852 1061.25 735.708 1059.81C727.141 1052.56 736.262 1068.57 729.907 1064.23C718.305 1073.06 702.558 1080.45 699.523 1096.53C697.866 1102.38 696.21 1108.22 687.643 1100.98C685.432 1098.07 679.354 1098.11 679.354 1098.11C679.631 1102.49 677.698 1103.96 675.764 1105.43C669.963 1109.84 640.951 1099.8 630.173 1089.65L621.329 1078.02C611.106 1076.62 612.763 1070.77 612.485 1066.4C612.208 1062.02 608.063 1060.58 608.063 1060.58C590.653 1041.71 590.653 1041.71 578.766 1014.05L572.133 1005.33C567.712 999.515 561.356 995.174 563.012 989.324C550.301 980.642 553.337 964.566 538.692 957.355C534.547 955.92 527.637 942.824 529.571 941.352C531.227 935.503 524.317 922.406 519.895 916.594C509.117 906.44 510.496 896.213 507.731 884.551C505.243 877.267 504.688 868.512 498.055 859.793C495.567 852.508 499.157 845.188 490.59 837.94C483.957 829.221 487.27 817.523 484.782 810.239C477.872 797.142 487.817 794.162 481.185 785.443C476.485 775.253 480.075 767.932 479.521 759.177L478.689 746.043C475.646 730.004 468.459 712.529 471.771 700.83C475.361 693.509 476.741 683.282 473.975 671.621C469.823 638.07 487.496 597.088 508.766 580.901C510.7 579.429 554.073 560.189 556.006 558.718C560.151 560.152 565.952 555.738 569.819 552.795L577.554 546.909L583.355 542.494C595.512 542.421 698.004 496.546 711.817 490.623C729.497 481.757 745.243 474.363 767.346 471.31L773.147 466.895L777.014 463.952C780.881 461.009 784.749 458.066 788.894 459.501L788.895 459.501C794.973 459.464 801.051 459.427 809.062 457.919C812.929 454.976 816.797 452.033 822.875 451.996C826.742 449.053 830.61 446.11 836.688 446.073C840.555 443.13 850.778 444.528 852.712 443.057C854.091 432.829 858.236 434.264 864.591 438.605C866.248 432.756 876.748 438.532 880.615 435.589C886.416 431.174 892.772 435.515 898.85 435.478C902.717 432.535 911.007 435.405 914.874 432.462C920.953 432.425 924.82 429.482 928.687 426.539C934.488 422.124 941.398 435.221 944.988 427.9C953.278 430.77 958.524 417.6 967.645 433.603C973.446 429.188 979.525 429.151 985.603 429.114C989.47 426.171 998.037 433.419 1001.9 430.476C1005.77 427.533 1009.92 428.967 1015.99 428.931C1022.07 428.894 1023.45 418.667 1029.81 423.008C1038.65 434.633 1033.4 415.687 1037.82 421.5C1049.42 412.67 1064.07 419.881 1078.16 418.336C1082.3 419.771 1088.66 424.112 1085.89 412.45C1085.89 412.45 1090.04 413.884 1091.97 412.413C1106.06 410.868 1120.15 409.323 1131.75 400.494C1133.69 399.022 1133.41 394.644 1135.34 393.173Z" fill="#FF4029"/>
<path d="M1756.96 255.109C1759.17 258.015 1757.23 259.487 1755.3 260.958C1753.37 262.43 1749.22 260.995 1749.22 260.995C1740.38 249.37 1751.16 259.524 1750.88 255.146C1752.81 253.674 1752.81 253.674 1754.47 247.825C1756.68 250.731 1758.89 253.638 1756.96 255.109Z" fill="#FF4029"/>
<path d="M1439.04 643.886C1437.11 645.358 1434.89 642.451 1432.96 643.923C1434.62 638.074 1436.55 636.602 1438.48 635.13L1439.04 643.886Z" fill="#FF4029"/>
<path d="M1739.55 268.353C1737.62 269.824 1735.96 275.674 1734.03 277.145C1735.96 275.674 1739.83 272.731 1739.55 268.353Z" fill="#FF4029"/>
<path d="M1234.53 391.113L1228.73 395.528C1228.45 391.15 1226.24 388.244 1226.24 388.244C1230.38 389.678 1232.32 388.207 1234.53 391.113Z" fill="#FF4029"/>
<path d="M1351.67 352.449C1351.39 348.071 1349.18 345.165 1349.18 345.165C1353.32 346.6 1353.32 346.6 1355.26 345.128C1353.6 350.978 1353.6 350.978 1351.67 352.449Z" fill="#FF4029"/>
<path d="M1367.49 698.333C1365.28 695.426 1365.28 695.426 1363.35 696.898C1365.56 699.804 1365.56 699.804 1367.49 698.333Z" fill="#FF4029"/>
</g>
<defs>
<clipPath id="clip0_137_962">
<rect width="1780" height="600" fill="white"/>
</clipPath>
</defs>
</svg>
