<svg viewBox="0 0 1290 423" fill="none" xmlns="http://www.w3.org/2000/svg">
<path d="M1290 370.992H1257.31V315.139H1209.03V370.992H1176.34V244.216H1209.03V290.618H1257.31V244.216H1290V370.992Z" fill="white"/>
<path d="M1107.46 373.461C1098.03 373.461 1089.32 372.07 1081.32 369.289C1073.37 366.507 1066.53 362.364 1060.8 356.858C1055.07 351.352 1050.61 344.484 1047.43 336.254C1044.31 328.024 1042.75 318.516 1042.75 307.731C1042.75 297.685 1044.25 288.575 1047.26 280.401C1050.27 272.227 1054.64 265.217 1060.37 259.371C1065.88 253.752 1072.69 249.41 1080.81 246.344C1088.98 243.279 1097.89 241.747 1107.54 241.747C1112.88 241.747 1117.67 242.059 1121.93 242.683C1126.24 243.251 1130.22 244.017 1133.85 244.982C1137.65 246.061 1141.09 247.281 1144.15 248.643C1147.27 249.949 1150 251.169 1152.33 252.304V283.04H1148.58C1146.99 281.678 1144.98 280.06 1142.53 278.187C1140.15 276.314 1137.43 274.47 1134.36 272.653C1131.24 270.837 1127.86 269.304 1124.23 268.056C1120.6 266.807 1116.71 266.182 1112.57 266.182C1107.97 266.182 1103.6 266.92 1099.45 268.396C1095.31 269.815 1091.48 272.199 1087.96 275.548C1084.61 278.783 1081.89 283.069 1079.79 288.404C1077.74 293.74 1076.72 300.211 1076.72 307.817C1076.72 315.763 1077.83 322.404 1080.04 327.74C1082.31 333.075 1085.15 337.276 1088.56 340.341C1092.02 343.463 1095.88 345.705 1100.13 347.067C1104.39 348.372 1108.59 349.025 1112.74 349.025C1116.71 349.025 1120.63 348.429 1124.48 347.237C1128.4 346.045 1132.01 344.427 1135.3 342.384C1138.08 340.738 1140.66 338.978 1143.05 337.105C1145.43 335.232 1147.39 333.614 1148.92 332.252H1152.33V362.563C1149.15 363.982 1146.11 365.315 1143.22 366.564C1140.32 367.813 1137.28 368.891 1134.11 369.8C1129.96 370.992 1126.07 371.9 1122.44 372.524C1118.81 373.149 1113.81 373.461 1107.46 373.461Z" fill="white"/>
<path d="M1022.66 370.992H930.958V244.216H1022.66V268.737H963.482V290.618H1018.4V315.139H963.482V346.471H1022.66V370.992Z" fill="white"/>
<path d="M911.291 268.737H871.7V370.992H839.006V268.737H799.415V244.216H911.291V268.737Z" fill="white"/>
<path d="M835.517 92.5312C837.244 91.217 839.095 91.8577 841.933 93.796C840.33 97.0649 835.889 98.3954 834.285 101.664C832.434 101.024 832.434 101.024 831.571 101.681C832.558 102.978 834.409 103.619 838.111 104.9C838.975 104.243 839.714 101.631 840.578 100.974C848.597 98.9704 856.493 95.0117 863.401 89.7552C866.24 91.6935 867.595 84.5151 872.532 91.0036L868.214 94.289C864.513 93.0076 864.636 94.9624 866.611 97.5578C865.748 98.2149 865.748 98.2149 862.909 96.2765L862.909 96.2774C862.169 98.889 861.43 101.5 861.554 103.455L863.528 106.05L867.846 102.765C867.106 105.377 868.094 106.675 867.23 107.332C868.094 106.675 869.945 107.315 871.672 106.001C872.535 105.344 872.412 103.39 872.288 101.435L872.288 101.435C873.151 100.777 873.027 98.8226 874.878 99.4634C879.32 98.1328 882.65 93.5498 887.092 92.2193C888.943 92.8599 890.793 93.5005 893.508 93.4842C894.372 92.8271 895.975 89.5581 898.813 91.4965C897.578 86.2893 903.007 86.2565 902.759 82.3469C901.648 79.0945 903.499 79.7351 906.213 79.7187C908.928 79.7022 912.506 79.0288 917.071 79.653C919.786 79.6366 922.376 77.6654 924.103 76.3513L929.284 72.4089C929.408 74.3637 930.396 75.6614 929.532 76.3185C927.805 77.6326 926.942 78.2897 925.091 77.649C923.364 78.9631 926.326 82.8562 923.487 80.9179C918.922 80.2936 922.995 87.4392 920.281 87.4556C923.119 89.394 923.983 88.7369 925.71 87.4228C927.437 86.1087 931.139 87.39 932.742 84.1212C937.06 80.8358 942.365 78.8482 947.67 76.8606L953.715 72.2612C954.578 71.6041 955.442 70.9471 957.416 73.5425C958.404 74.8402 961.858 72.212 962.721 71.5549L964.448 70.2408C968.766 66.9555 973.947 63.0131 981.351 65.5757C986.408 59.6785 996.65 64.1795 1002.7 59.5801C1005.29 57.6089 1008 57.5925 1011.58 56.919C1018.73 55.5721 1028.48 52.2539 1033.66 48.3115C1034.53 47.6545 1036.25 46.3403 1036.13 44.3856C1037.98 45.0262 1038.84 44.3692 1039.71 43.7121L1043.16 41.0839C1044.02 40.4268 1044.02 40.4268 1045.88 41.0674C1045.75 39.1127 1046.61 38.4556 1047.48 37.7986C1049.21 36.4844 1051.92 36.468 1053.65 35.1539C1055.25 31.8851 1059.82 32.5092 1063.39 31.8358L1064.26 31.1787C1067.59 26.5957 1073.88 25.9058 1079.19 23.9182C1081.78 21.947 1087.33 23.869 1090.78 21.2407C1095.22 19.9102 1098.8 19.2367 1103.37 19.861C1106.33 23.754 1099.17 25.1011 1104.11 31.5896C1099.79 34.8749 1097.33 38.8008 1094.98 44.6815C1098.81 47.9176 1096.22 49.8887 1095.35 50.5458C1092.76 52.517 1086.23 63.6377 1086.35 65.5925C1083.76 67.5637 1083.14 72.1304 1080.55 74.1015C1080.55 74.1015 1079.69 74.7586 1077.84 74.1178C1076.98 74.7749 1076.36 79.3416 1074.63 80.6557C1073.89 83.2675 1072.17 84.5817 1070.44 85.8958C1068.1 91.7765 1066.49 95.0453 1064.03 98.9713C1062.3 100.285 1058.72 100.959 1058.84 102.914C1058.23 107.48 1055.51 107.497 1052.92 109.468C1050.46 113.394 1046.14 116.679 1043.67 120.605L1040.22 123.233C1040.47 127.143 1038.74 128.457 1037.01 129.771C1035.28 131.085 1035.41 133.04 1032.69 133.056C1030.97 134.37 1032.08 137.623 1030.35 138.937C1028.62 140.251 1025.91 140.268 1023.32 142.239C1020.85 146.165 1017.52 150.748 1014.07 153.376C1012.34 154.69 1010.61 156.004 1007.9 156.021C1007.28 160.587 1006.42 161.244 1005.56 161.901L1002.97 163.873C1002.23 166.484 1000.5 167.798 998.772 169.113L997.045 170.427C993.467 171.1 992.727 173.712 992.975 177.621C990.26 177.638 989.397 178.295 988.533 178.952C985.943 180.923 984.339 184.192 981.749 186.163C980.885 186.82 980.022 187.477 976.444 188.151C977.679 193.358 972.99 190.779 972.126 191.436C972.374 195.346 971.51 196.003 968.796 196.019C966.945 195.379 965.218 196.693 964.354 197.35C963.491 198.007 962.627 198.664 961.024 201.933C959.173 201.292 961.272 205.842 958.433 203.904C956.582 203.263 955.843 205.875 954.979 206.532L950.661 209.817C948.934 211.132 948.195 213.743 945.604 215.715C940.791 211.181 944.125 220.938 940.299 217.702C938.572 219.016 937.832 221.628 936.105 222.942L921.425 234.112C920.562 234.769 918.711 234.129 916.86 233.488L916.86 233.488C916.983 235.443 916.983 235.443 916.12 236.1L913.529 238.071C912.666 238.728 911.802 239.385 911.926 241.34C910.075 240.699 909.212 241.356 908.348 242.013C906.621 243.328 905.881 245.939 905.018 246.597C904.278 249.208 900.576 247.927 899.713 248.584C898.849 249.241 897.986 249.898 899.097 253.151L899.096 253.15C897.246 252.51 895.395 251.869 894.531 252.526C892.804 253.841 892.928 255.795 891.201 257.11C890.338 257.767 889.474 258.424 887.623 257.783L883.305 261.068C878.124 265.011 871.092 268.312 865.047 272.912L857.275 278.825L854.685 280.796C853.821 281.454 851.97 280.813 851.97 280.813C850.243 282.127 847.405 280.189 845.678 281.503C844.814 282.16 845.802 283.458 845.926 285.412C841.484 286.743 837.043 288.073 833.588 290.702C831.861 292.016 831.122 294.628 828.531 296.599C825.693 294.66 826.064 300.525 823.226 298.586C818.908 301.872 812.616 302.562 808.298 305.847C807.435 306.504 805.708 307.818 805.831 309.773C804.968 310.43 803.117 309.789 801.39 311.103C800.526 311.76 799.663 312.417 799.787 314.372C794.974 309.838 792.631 315.719 788.929 314.438C788.189 317.05 787.326 317.707 786.462 318.364L783.008 320.992C782.144 321.649 781.281 322.306 782.268 323.604C775.112 324.951 769.931 328.893 763.639 329.583L759.321 332.868C759.445 334.823 757.718 336.137 756.854 336.794C751.549 338.782 746.244 340.77 741.926 344.055C738.348 344.728 735.758 346.7 732.304 349.328C729.713 351.299 727.122 353.27 723.544 353.944L721.817 355.258C716.265 353.336 713.674 355.307 711.947 356.621L707.629 359.906C706.766 360.563 706.026 363.175 705.039 361.878C703.188 361.237 702.324 361.894 701.461 362.551C699.734 363.865 699.857 365.82 698.994 366.477C698.13 367.134 696.279 366.493 696.279 366.493L693.689 368.465L679.872 378.978L676.418 381.606C670.126 382.296 664.82 384.283 661.366 386.912C660.503 387.569 658.9 390.837 657.049 390.197C653.223 386.961 657.296 394.106 654.458 392.168C649.277 396.11 642.245 399.412 640.889 406.59C640.149 409.202 639.41 411.814 635.584 408.578C634.597 407.28 631.882 407.297 631.882 407.297C632.006 409.252 631.142 409.909 630.279 410.566C627.688 412.537 614.732 408.052 609.919 403.519L605.969 398.328C601.404 397.704 602.144 395.092 602.02 393.137C601.896 391.182 600.045 390.542 600.045 390.542C592.27 382.115 592.27 382.115 586.962 369.762L584 365.869C582.025 363.273 579.187 361.335 579.926 358.723C574.25 354.846 575.605 347.668 569.065 344.448C567.214 343.808 564.128 337.96 564.992 337.303C565.732 334.691 562.646 328.843 560.671 326.248C555.858 321.714 556.474 317.147 555.239 311.94C554.128 308.688 553.88 304.778 550.918 300.885C549.807 297.632 551.41 294.364 547.584 291.128C544.622 287.234 546.101 282.011 544.99 278.758C541.904 272.91 546.346 271.58 543.384 267.687C541.285 263.137 542.888 259.868 542.641 255.958L542.269 250.094C540.91 242.932 537.701 235.129 539.18 229.906C540.783 226.637 541.399 222.07 540.164 216.863C538.31 201.882 546.202 183.583 555.701 176.355C556.565 175.698 575.934 167.107 576.798 166.45C578.648 167.09 581.239 165.119 582.966 163.805L586.42 161.177L589.011 159.206C594.44 159.173 640.211 138.689 646.379 136.044C654.275 132.086 661.307 128.784 671.177 127.421L673.768 125.449L675.495 124.135C677.222 122.821 678.949 121.507 680.8 122.148L680.801 122.148C683.515 122.131 686.229 122.115 689.807 121.441C691.534 120.127 693.261 118.813 695.976 118.797C697.703 117.483 699.43 116.169 702.144 116.152C703.871 114.838 708.437 115.462 709.3 114.805C709.916 110.239 711.767 110.879 714.605 112.818C715.345 110.206 720.034 112.785 721.761 111.471C724.352 109.499 727.19 111.438 729.905 111.421C731.632 110.107 735.334 111.389 737.061 110.074C739.775 110.058 741.502 108.744 743.229 107.43C745.82 105.459 748.906 111.306 750.509 108.038C754.211 109.319 756.554 103.438 760.627 110.584C763.218 108.613 765.932 108.596 768.647 108.58C770.374 107.266 774.199 110.502 775.926 109.188C777.654 107.873 779.504 108.514 782.219 108.498C784.933 108.481 785.549 103.915 788.387 105.853C792.337 111.044 789.991 102.584 791.965 105.18C797.147 101.237 803.687 104.457 809.979 103.767C811.83 104.408 814.668 106.346 813.433 101.139C813.433 101.139 815.284 101.779 816.148 101.122C822.44 100.432 828.733 99.7424 833.914 95.8C834.777 95.143 834.654 93.1882 835.517 92.5312Z" fill="#FF4029"/>
<path d="M1113.12 30.8833C1114.1 32.1809 1113.24 32.838 1112.38 33.4951C1111.51 34.1521 1109.66 33.5115 1109.66 33.5115C1105.71 28.3207 1110.53 32.8544 1110.4 30.8996C1111.27 30.2425 1111.27 30.2425 1112.01 27.6307C1112.99 28.9284 1113.98 30.2262 1113.12 30.8833Z" fill="#FF4029"/>
<path d="M971.142 204.479C970.278 205.136 969.291 203.838 968.428 204.495C969.167 201.884 970.031 201.226 970.894 200.569L971.142 204.479Z" fill="#FF4029"/>
<path d="M1105.35 36.7968C1104.48 37.4539 1103.74 40.0657 1102.88 40.7227C1103.74 40.0657 1105.47 38.7516 1105.35 36.7968Z" fill="#FF4029"/>
<path d="M879.812 91.6114L877.221 93.5826C877.097 91.6279 876.11 90.3302 876.11 90.3302C877.961 90.9708 878.825 90.3137 879.812 91.6114Z" fill="#FF4029"/>
<path d="M932.123 74.3473C931.999 72.3925 931.012 71.0948 931.012 71.0948C932.862 71.7354 932.862 71.7354 933.726 71.0783C932.986 73.6902 932.986 73.6902 932.123 74.3473Z" fill="#FF4029"/>
<path d="M939.191 228.79C938.204 227.492 938.204 227.492 937.34 228.15C938.328 229.447 938.328 229.447 939.191 228.79Z" fill="#FF4029"/>
<path d="M720.808 331.145C720.808 343.633 715.501 353.793 704.886 361.626C694.329 369.402 679.968 373.29 661.805 373.29C651.304 373.29 642.137 372.382 634.304 370.566C626.528 368.693 619.234 366.337 612.423 363.499V333.104H615.999C622.753 338.496 630.302 342.639 638.646 345.534C647.047 348.429 655.107 349.877 662.826 349.877C664.813 349.877 667.424 349.706 670.659 349.366C673.895 349.025 676.534 348.457 678.578 347.663C681.075 346.641 683.118 345.364 684.708 343.831C686.354 342.299 687.177 340.028 687.177 337.02C687.177 334.239 685.985 331.855 683.601 329.868C681.274 327.825 677.84 326.264 673.299 325.185C668.531 324.05 663.479 323 658.144 322.035C652.865 321.014 647.898 319.736 643.244 318.204C632.573 314.741 624.882 310.059 620.171 304.156C615.516 298.196 613.189 290.817 613.189 282.019C613.189 270.212 618.468 260.591 629.025 253.156C639.64 245.663 653.262 241.917 669.893 241.917C678.237 241.917 686.467 242.74 694.584 244.386C702.758 245.976 709.825 247.991 715.784 250.431V279.635H712.294C707.185 275.548 700.913 272.142 693.477 269.418C686.098 266.637 678.549 265.246 670.83 265.246C668.105 265.246 665.381 265.445 662.656 265.842C659.988 266.182 657.406 266.864 654.908 267.885C652.695 268.737 650.793 270.042 649.204 271.802C647.614 273.505 646.82 275.463 646.82 277.677C646.82 281.025 648.097 283.608 650.651 285.424C653.205 287.184 658.03 288.802 665.125 290.277C669.78 291.242 674.235 292.179 678.492 293.087C682.806 293.995 687.432 295.244 692.371 296.833C702.077 300.012 709.229 304.354 713.826 309.86C718.481 315.309 720.808 322.404 720.808 331.145Z" fill="white"/>
<path d="M592.67 370.992H518.426V348.514H539.201V266.693H518.426V244.216H592.67V266.693H571.895V348.514H592.67V370.992Z" fill="white"/>
<path d="M458.827 283.04C458.827 279.862 458.175 277.137 456.869 274.867C455.564 272.596 453.322 270.808 450.143 269.503C447.929 268.595 445.347 268.056 442.395 267.885C439.444 267.658 436.01 267.545 432.093 267.545H420.258V301.686H430.305C435.527 301.686 439.898 301.431 443.417 300.92C446.936 300.409 449.888 299.246 452.272 297.429C454.542 295.67 456.188 293.74 457.21 291.64C458.288 289.483 458.827 286.616 458.827 283.04ZM509.827 370.992H469.896L435.328 324.504H420.258V370.992H387.734V244.216H442.565C450.058 244.216 456.5 244.642 461.893 245.493C467.285 246.344 472.337 248.189 477.048 251.027C481.816 253.865 485.59 257.555 488.372 262.096C491.21 266.58 492.629 272.227 492.629 279.039C492.629 288.404 490.443 296.039 486.073 301.942C481.759 307.845 475.572 312.755 467.512 316.671L509.827 370.992Z" fill="white"/>
<path d="M369.514 370.992H335.713L326.943 345.364H279.945L271.176 370.992H238.226L285.054 244.216H322.686L369.514 370.992ZM319.025 322.12L303.444 276.655L287.863 322.12H319.025Z" fill="white"/>
<path d="M234.139 244.216L187.907 370.992H151.296L105.065 244.216H139.377L170.028 333.274L200.678 244.216H234.139Z" fill="white"/>
<path d="M91.6974 370.992H0V244.216H91.6974V268.737H32.524V290.618H87.4403V315.139H32.524V346.471H91.6974V370.992Z" fill="white"/>
<path d="M0 156H295L313 210H0V156Z" fill="white"/>
<path fill-rule="evenodd" clip-rule="evenodd" d="M91.5535 160.149L90.2098 160.299L88.6246 160.66L87.0395 161.021L85.9371 161.433L84.8347 161.845L83.0443 162.77L81.2537 163.695L79.5122 164.997L77.7709 166.299L75.815 168.319L73.8591 170.339L72.705 172.059L71.5507 173.779L70.7702 175.369L69.9894 176.958L69.2475 178.798L68.5056 180.638L67.3766 184.318L66.2479 187.998L65.6637 189.88L65.0795 191.761H64.8498H64.6202L64.4472 191.218L64.2742 190.674L61.8118 182.812L59.3495 174.95L59.0471 174.365L58.7446 173.779L58.1841 173.254L57.6234 172.728L56.8796 172.357L56.136 171.986L55.188 171.9L54.2398 171.815L53.3052 172.085L52.3706 172.356L51.5069 173.129L50.6432 173.902L50.4457 174.259L50.2481 174.616L47.6362 183.147L45.0241 191.678H44.7771H44.5301L41.4129 181.892L38.2957 172.107L34.6478 172.062L31 172.017V172.173V172.329L35.7959 185.432L40.592 198.536L40.961 199.079L41.3302 199.622L42.0021 200.099L42.674 200.575L43.2449 200.768L43.8158 200.962L44.8406 200.958L45.8654 200.954L46.6213 200.614L47.3772 200.274L47.9374 199.739L48.4977 199.205L48.7643 198.703L49.0308 198.201L51.7469 190.591L54.4632 182.98H54.757H55.0508L57.8621 190.706L60.6732 198.433L61.1076 199.087L61.5418 199.74L62.3363 200.264L63.1307 200.788L63.6979 200.894L64.2651 201L65.3358 200.932L66.4063 200.864L67.2162 200.366L68.026 199.867L68.5377 199.199L69.0491 198.531L72.8086 187.995L76.568 177.459L77.3719 175.911L78.1758 174.362L78.9292 173.234L79.6825 172.107L80.7822 170.824L81.8821 169.541L83.0977 168.499L84.3131 167.457L85.4703 166.712L86.6275 165.966L88.1666 165.241L89.7059 164.516L91.2156 164.082L92.7253 163.647L94.323 163.382L95.9208 163.117H98.4404L100.96 163.116L102.868 163.401L104.777 163.685L107.068 164.25L109.358 164.815L111.29 165.468L113.222 166.122L115.113 166.895L117.004 167.669L117.687 168.016L118.37 168.363L118.543 168.305L118.716 168.247L116.233 166.842L113.749 165.436L111.302 164.313L108.855 163.19L107.204 162.581L105.553 161.971L103.593 161.41L101.632 160.849L99.5646 160.499L97.4974 160.15L95.1973 160.075L92.8973 160L91.5535 160.149ZM89.0986 172.254L88.4914 172.47L88.0068 172.817L87.5222 173.165L86.9867 173.723L86.4513 174.281L80.2242 187.329L73.9972 200.376L73.9035 200.669L73.8099 200.962L77.4747 200.957L81.1393 200.952L85.7585 191.154L90.3777 181.356L90.6105 181.263L90.8434 181.17L91.0837 181.322L91.3241 181.474L95.9003 191.176L100.477 200.878L104.12 200.923L107.763 200.968V200.82V200.671L101.87 188.313L95.9767 175.954L95.3799 174.821L94.7831 173.688L94.1514 173.189L93.5195 172.691L92.7885 172.361L92.0575 172.03L90.8817 172.034L89.7059 172.038L89.0986 172.254ZM103.06 175.201V178.379H109.023H114.985V189.67V200.962H118.345H121.704V189.67V178.379H126.553H131.401L131.669 177.669L131.937 176.958L132.784 174.548L133.63 172.138V172.081V172.023H118.345H103.06V175.201ZM137.494 172.077V172.131L136.405 175.255L135.317 178.379H141.277H147.236V189.67V200.962H150.595H153.955V189.67V178.379H159.918H165.881V175.201V172.023H151.687H137.494V172.077ZM169.408 186.492V200.962H172.768H176.127V186.492V172.023H172.768H169.408V186.492ZM187.927 172.209L187.045 172.355L186.048 172.758L185.051 173.162L184.114 173.781L183.176 174.401L182.327 175.345L181.477 176.289L180.827 177.627L180.177 178.965L179.99 180.053L179.802 181.14L179.86 187.078L179.917 193.016L180.287 194.115L180.657 195.215L181.322 196.239L181.987 197.263L182.71 197.968L183.434 198.673L184.404 199.301L185.374 199.93L186.42 200.317L187.465 200.703L196.255 200.756L205.045 200.808L204.99 200.588L204.934 200.367L203.936 197.496L202.937 194.625L195.873 194.573L188.809 194.521L188.095 194.142L187.381 193.762L186.919 193.067L186.457 192.372L186.405 186.839L186.353 181.307L186.535 180.687L186.718 180.067L187.154 179.552L187.589 179.037L188.115 178.75L188.641 178.463L195.779 178.379L202.918 178.296L203.957 175.369L204.996 172.441L205.007 172.232L205.018 172.023L196.913 172.043L188.809 172.062L187.927 172.209ZM223.915 172.245L223.411 172.442L222.907 172.72L222.403 172.998L221.874 173.556L221.345 174.114L220.75 175.303L220.155 176.492L214.416 188.518L208.677 200.543L208.593 200.752L208.509 200.962H212.189H215.869L220.545 191.092L225.221 181.223H225.593H225.966L230.551 190.967L235.137 200.711L235.249 200.839L235.36 200.968L238.99 200.923L242.619 200.878L236.29 187.61L229.962 174.341L229.418 173.698L228.875 173.055L227.838 172.539L226.801 172.023L225.609 172.036L224.419 172.048L223.915 172.245ZM245.499 183.666V195.309L245.763 196.325L246.028 197.341L246.421 198.114L246.814 198.886L247.501 199.571L248.189 200.255L248.818 200.567L249.446 200.878L258.723 200.924L268 200.97L267.314 199.084L266.628 197.198L266.21 195.985L265.793 194.772H259.885H253.976L253.399 194.464L252.823 194.156L252.478 193.502L252.134 192.849L252.087 182.436L252.04 172.023H248.77H245.499V183.666Z" fill="#142A42"/>
</svg>
