<svg viewBox="0 0 412 50" fill="none" xmlns="http://www.w3.org/2000/svg">
<path d="M21.6489 5.129C21.7692 5.03749 21.8981 5.0821 22.0957 5.21708C21.9841 5.44472 21.6748 5.53737 21.5631 5.76501C21.4342 5.7204 21.4342 5.7204 21.3741 5.76615C21.4428 5.85653 21.5717 5.90114 21.8295 5.99036C21.8897 5.94461 21.9412 5.76273 22.0013 5.71697C22.5598 5.57742 23.1096 5.30174 23.5907 4.93568C23.7884 5.07067 23.8828 4.57078 24.2266 5.02262L23.9259 5.25141C23.6681 5.16218 23.6767 5.2983 23.8143 5.47904C23.7541 5.5248 23.7541 5.5248 23.5565 5.38981L23.5564 5.38988C23.5049 5.57174 23.4534 5.7536 23.4621 5.88971L23.5996 6.07044L23.9003 5.84166C23.8487 6.02355 23.9175 6.11392 23.8574 6.15967C23.9175 6.11392 24.0464 6.15853 24.1667 6.06701C24.2268 6.02126 24.2182 5.88513 24.2096 5.74901C24.2697 5.70325 24.2611 5.56712 24.39 5.61174C24.6993 5.51908 24.9312 5.19993 25.2405 5.10728C25.3694 5.15189 25.4983 5.1965 25.6873 5.19536C25.7475 5.14961 25.8591 4.92196 26.0568 5.05695C25.9708 4.69433 26.3488 4.69204 26.3316 4.41979C26.2542 4.1933 26.3831 4.23791 26.5721 4.23676C26.7612 4.23562 27.0103 4.18872 27.3283 4.23219C27.5173 4.23105 27.6977 4.09378 27.818 4.00227L28.1788 3.72773C28.1874 3.86385 28.2562 3.95422 28.196 3.99998C28.0758 4.09149 28.0156 4.13725 27.8867 4.09263C27.7665 4.18415 27.9727 4.45526 27.7751 4.32028C27.4572 4.2768 27.7408 4.77441 27.5518 4.77555C27.7494 4.91053 27.8096 4.86478 27.9298 4.77326C28.0501 4.68175 28.3079 4.77098 28.4196 4.54334C28.7202 4.31456 29.0897 4.17614 29.4591 4.03773L29.8801 3.71744C29.9402 3.67168 30.0004 3.62593 30.1379 3.80667C30.2066 3.89704 30.4472 3.71401 30.5073 3.66825L30.6276 3.57674C30.9283 3.34796 31.2891 3.07342 31.8047 3.25188C32.1569 2.84121 32.8701 3.15465 33.2911 2.83435C33.4715 2.69708 33.6605 2.69594 33.9097 2.64904C34.408 2.55524 35.0868 2.32417 35.4476 2.04964C35.5077 2.00388 35.628 1.91236 35.6194 1.77624C35.7483 1.82085 35.8084 1.7751 35.8685 1.72934L36.1091 1.54631C36.1692 1.50056 36.1692 1.50056 36.2981 1.54517C36.2895 1.40905 36.3496 1.36329 36.4098 1.31753C36.53 1.22602 36.7191 1.22488 36.8393 1.13336C36.951 0.905731 37.2689 0.949197 37.5181 0.9023L37.5782 0.856543C37.8101 0.537388 38.2483 0.489349 38.6178 0.350936C38.7982 0.213666 39.1849 0.347506 39.4254 0.164484C39.7347 0.0718254 39.9839 0.0249253 40.3018 0.0683994C40.5081 0.339504 40.0098 0.433307 40.3536 0.885154C40.0529 1.11394 39.8811 1.38733 39.7179 1.79685C39.9844 2.0222 39.804 2.15947 39.7438 2.20522C39.5634 2.34249 39.1082 3.11692 39.1168 3.25305C38.9364 3.39032 38.8935 3.70833 38.7131 3.8456C38.7131 3.8456 38.653 3.89135 38.5241 3.84673C38.4639 3.89249 38.421 4.2105 38.3008 4.30201C38.2493 4.4839 38.129 4.57541 38.0087 4.66692C37.8455 5.07644 37.7339 5.30408 37.5621 5.57747C37.4418 5.66899 37.1927 5.71589 37.2013 5.85201C37.1584 6.17002 36.9694 6.17116 36.789 6.30843C36.6172 6.58182 36.3165 6.8106 36.1447 7.084L35.9042 7.26702C35.9214 7.53928 35.8011 7.63079 35.6809 7.72231C35.5606 7.81382 35.5692 7.94994 35.3802 7.95109C35.2599 8.0426 35.3373 8.26909 35.217 8.3606C35.0968 8.45212 34.9077 8.45326 34.7273 8.59053C34.5555 8.86392 34.3236 9.18308 34.0831 9.3661C33.9628 9.45762 33.8425 9.54913 33.6535 9.55027C33.6106 9.86828 33.5505 9.91404 33.4903 9.95979L33.3099 10.0971C33.2584 10.2789 33.1381 10.3705 33.0179 10.462L32.8976 10.5535C32.6484 10.6004 32.5969 10.7823 32.6142 11.0545C32.4251 11.0557 32.365 11.1014 32.3048 11.1472C32.1244 11.2844 32.0128 11.5121 31.8324 11.6493C31.7722 11.6951 31.7121 11.7409 31.4629 11.7878C31.5489 12.1504 31.2224 11.9708 31.1623 12.0165C31.1795 12.2888 31.1194 12.3345 30.9303 12.3357C30.8014 12.2911 30.6812 12.3826 30.621 12.4283C30.5609 12.4741 30.5008 12.5199 30.3891 12.7475C30.2602 12.7029 30.4064 13.0197 30.2087 12.8848C30.0798 12.8402 30.0283 13.022 29.9682 13.0678L29.6675 13.2966C29.5472 13.3881 29.4957 13.57 29.3153 13.7072C28.9801 13.3915 29.2123 14.071 28.9458 13.8456C28.8256 13.9372 28.7741 14.119 28.6538 14.2106L27.6315 14.9884C27.5713 15.0342 27.4424 14.9896 27.3136 14.9449L27.3135 14.9449C27.3222 15.0811 27.3222 15.0811 27.262 15.1268L27.0816 15.2641C27.0215 15.3098 26.9613 15.3556 26.97 15.4917C26.8411 15.4471 26.7809 15.4929 26.7208 15.5386C26.6005 15.6301 26.549 15.812 26.4889 15.8578C26.4374 16.0397 26.1796 15.9504 26.1194 15.9962C26.0593 16.0419 25.9992 16.0877 26.0765 16.3142L26.0765 16.3142C25.9476 16.2696 25.8187 16.225 25.7586 16.2707C25.6383 16.3622 25.647 16.4984 25.5267 16.5899C25.4665 16.6356 25.4064 16.6814 25.2775 16.6368L24.9768 16.8656C24.616 17.1401 24.1263 17.37 23.7053 17.6903L23.1641 18.1021L22.9837 18.2394C22.9236 18.2852 22.7947 18.2405 22.7947 18.2405C22.6744 18.3321 22.4768 18.1971 22.3565 18.2886C22.2963 18.3343 22.3651 18.4247 22.3737 18.5608C22.0644 18.6535 21.7551 18.7461 21.5146 18.9292C21.3943 19.0207 21.3428 19.2026 21.1624 19.3398C20.9647 19.2049 20.9906 19.6132 20.7929 19.4782C20.4923 19.707 20.054 19.7551 19.7534 19.9839C19.6932 20.0296 19.573 20.1211 19.5816 20.2572C19.5214 20.303 19.3926 20.2584 19.2723 20.3499C19.2121 20.3957 19.152 20.4414 19.1606 20.5775C18.8255 20.2618 18.6623 20.6713 18.4045 20.5821C18.353 20.764 18.2928 20.8098 18.2327 20.8555L17.9922 21.0385C17.932 21.0843 17.8719 21.13 17.9407 21.2204C17.4423 21.3142 17.0815 21.5887 16.6433 21.6368L16.3426 21.8656C16.3512 22.0017 16.231 22.0932 16.1708 22.139C15.8014 22.2774 15.4319 22.4158 15.1313 22.6446C14.8821 22.6915 14.7017 22.8287 14.4611 23.0118C14.2807 23.149 14.1003 23.2863 13.8512 23.3332L13.7309 23.4247C13.3442 23.2909 13.1638 23.4282 13.0435 23.5197L12.7428 23.7484C12.6827 23.7942 12.6312 23.9761 12.5624 23.8857C12.4335 23.8411 12.3734 23.8869 12.3133 23.9326C12.193 24.0241 12.2016 24.1603 12.1415 24.206C12.0813 24.2518 11.9524 24.2072 11.9524 24.2072L11.772 24.3444L10.8098 25.0765L10.5693 25.2595C10.1311 25.3076 9.76166 25.446 9.52111 25.629C9.46097 25.6748 9.34932 25.9024 9.22043 25.8578C8.95401 25.6325 9.23768 26.1301 9.04002 25.9951C8.6792 26.2696 8.18949 26.4995 8.09508 26.9994C8.04357 27.1813 7.99206 27.3632 7.72564 27.1378C7.65688 27.0475 7.46785 27.0486 7.46785 27.0486C7.47647 27.1847 7.41634 27.2305 7.3562 27.2763C7.17579 27.4135 6.27352 27.1012 5.93835 26.7855L5.6633 26.424C5.34537 26.3806 5.39689 26.1987 5.38826 26.0626C5.37964 25.9264 5.25074 25.8818 5.25074 25.8818C4.70929 25.295 4.70929 25.295 4.33962 24.4348L4.13334 24.1636C3.99582 23.9829 3.79816 23.8479 3.84967 23.666C3.45436 23.3961 3.54876 22.8962 3.09331 22.672C2.96442 22.6274 2.74952 22.2201 2.80965 22.1744C2.86117 21.9925 2.64626 21.5853 2.50874 21.4045C2.17357 21.0888 2.21645 20.7708 2.13044 20.4082C2.05306 20.1817 2.03582 19.9094 1.82954 19.6383C1.75215 19.4118 1.8638 19.1842 1.59738 18.9588C1.3911 18.6877 1.49413 18.324 1.41675 18.0975C1.20184 17.6902 1.51115 17.5976 1.30487 17.3265C1.15872 17.0096 1.27037 16.782 1.25312 16.5097L1.22726 16.1013C1.13262 15.6026 0.909097 15.0592 1.01212 14.6955C1.12377 14.4678 1.16666 14.1498 1.08065 13.7872C0.951529 12.744 1.50115 11.4696 2.16265 10.9663C2.22279 10.9206 3.57166 10.3223 3.63179 10.2765C3.76069 10.3212 3.9411 10.1839 4.06137 10.0924L4.30192 9.90934L4.48232 9.77207C4.86039 9.76979 8.04785 8.34334 8.47742 8.15917C9.02727 7.88349 9.51699 7.65357 10.2044 7.55862L10.3848 7.42135L10.505 7.32984C10.6253 7.23833 10.7456 7.14682 10.8745 7.19143L10.8745 7.19143C11.0635 7.19029 11.2526 7.18914 11.5017 7.14225C11.622 7.05073 11.7423 6.95922 11.9313 6.95808C12.0516 6.86657 12.1718 6.77505 12.3609 6.77391C12.4811 6.6824 12.7991 6.72587 12.8592 6.68011C12.9021 6.3621 13.031 6.40671 13.2287 6.5417C13.2802 6.35982 13.6067 6.53941 13.727 6.4479C13.9074 6.31063 14.1051 6.44561 14.2941 6.44447C14.4144 6.35295 14.6722 6.44219 14.7924 6.35067C14.9815 6.34953 15.1017 6.25801 15.222 6.1665C15.4024 6.02923 15.6173 6.43647 15.729 6.20883C15.9868 6.29806 16.1499 5.88854 16.4336 6.38614C16.614 6.24887 16.803 6.24773 16.9921 6.24658C17.1123 6.15507 17.3787 6.38043 17.499 6.28891C17.6193 6.1974 17.7482 6.24201 17.9372 6.24087C18.1262 6.23972 18.1691 5.92171 18.3668 6.0567C18.6418 6.41817 18.4784 5.82906 18.616 6.0098C18.9768 5.73526 19.4322 5.95947 19.8704 5.91143C19.9993 5.95604 20.197 6.09103 20.111 5.7284C20.111 5.7284 20.2399 5.77301 20.3 5.72726C20.7382 5.67922 21.1764 5.63117 21.5372 5.35664C21.5974 5.31088 21.5887 5.17475 21.6489 5.129Z" fill="#FF4029"/>
<path d="M40.9808 0.835969C41.0496 0.926337 40.9894 0.972091 40.9293 1.01785C40.8692 1.0636 40.7403 1.01899 40.7403 1.01899C40.4652 0.657515 40.8004 0.973236 40.7918 0.837108C40.8519 0.791349 40.8519 0.79135 40.9034 0.609468C40.9722 0.699836 41.0409 0.790213 40.9808 0.835969Z" fill="#FF4029"/>
<path d="M31.0937 12.9248C31.0336 12.9706 30.9648 12.8802 30.9047 12.9259C30.9562 12.7441 31.0163 12.6983 31.0765 12.6526L31.0937 12.9248Z" fill="#FF4029"/>
<path d="M40.4396 1.24778C40.3795 1.29353 40.3279 1.47541 40.2678 1.52117C40.3279 1.47541 40.4482 1.3839 40.4396 1.24778Z" fill="#FF4029"/>
<path d="M24.7335 5.06495L24.5531 5.20222C24.5445 5.06609 24.4758 4.97572 24.4758 4.97572C24.6046 5.02034 24.6648 4.97458 24.7335 5.06495Z" fill="#FF4029"/>
<path d="M28.3764 3.86271C28.3678 3.72658 28.2991 3.63621 28.2991 3.63621C28.428 3.68083 28.428 3.68083 28.4881 3.63507C28.4366 3.81695 28.4366 3.81696 28.3764 3.86271Z" fill="#FF4029"/>
<path d="M28.8687 14.6178C28.7999 14.5274 28.7999 14.5274 28.7398 14.5732C28.8085 14.6635 28.8085 14.6635 28.8687 14.6178Z" fill="#FF4029"/>
<path d="M16.6948 26.4576C16.5879 26.3778 16.5879 26.3778 16.567 26.4512C16.577 26.6113 16.5837 26.718 16.5111 26.7781C16.4626 26.8182 16.2898 26.9053 16.2413 26.9454C16.1895 26.9322 16.1102 26.8857 16.1169 26.9924C16.0893 26.9591 15.9649 27.006 16.0342 26.8925C15.9857 26.9326 15.8788 26.8528 15.8304 26.8929C15.8304 26.8929 15.8062 26.913 15.8095 26.9663C15.8371 26.9996 15.7644 27.0598 15.6817 26.9599L15.6575 26.98C15.6918 27.12 15.5848 27.0401 15.5364 27.0803C15.488 27.1204 15.4362 27.1071 15.3877 27.1473C15.3635 27.1673 15.3393 27.1874 15.3427 27.2407C15.3702 27.274 15.346 27.2941 15.3218 27.3141C15.2458 27.3209 15.194 27.3077 15.118 27.3145C15.0938 27.3346 15.0762 27.4613 14.9693 27.3815C14.9451 27.4016 14.9175 27.3683 14.9175 27.3683C14.9902 27.3081 14.9868 27.2548 15.0077 27.1814L14.935 27.2416C14.8866 27.2817 14.8415 27.3751 14.7931 27.4152C14.7446 27.4554 14.7204 27.4754 14.6202 27.5023C14.5893 27.4157 14.6135 27.3956 14.6135 27.3956C14.7104 27.3154 14.7797 27.2019 14.8766 27.1216L15.0945 26.9411C15.1187 26.9211 15.1672 26.8809 15.2432 26.8741C15.2123 26.7875 15.3434 26.8472 15.3401 26.7939C15.4336 26.6603 15.6065 26.5733 15.6449 26.3731C15.6415 26.3198 15.7175 26.3129 15.7659 26.2728C15.7902 26.2528 15.8453 26.3193 15.8144 26.2327C15.7868 26.1994 15.735 26.1862 15.6832 26.1729L15.6348 26.2131C15.6139 26.2865 15.6206 26.3932 15.5688 26.3799C15.4411 26.3735 15.4995 26.4934 15.4478 26.4802C15.3684 26.4337 15.4027 26.5737 15.3509 26.5604C15.2991 26.5472 15.3024 26.6006 15.3058 26.6539C15.2816 26.674 15.2574 26.694 15.2056 26.6808L15.0502 26.6411L14.6143 27.0021C14.5934 27.0755 14.4623 27.0158 14.4965 27.1558C14.469 27.1225 14.4447 27.1425 14.4447 27.1425C14.3654 27.096 14.3412 27.1161 14.3445 27.1694C14.3479 27.2228 14.3236 27.2428 14.2685 27.1762L14.1925 27.1831C14.2268 27.323 14.1265 27.3499 14.0781 27.39C14.0572 27.4635 14.0088 27.5036 13.9052 27.4771L13.8777 27.4438C13.8292 27.4839 13.8877 27.6039 13.8084 27.5573C13.7841 27.5774 13.8016 27.4506 13.729 27.5108C13.5803 27.5778 13.4559 27.6248 13.3039 27.6384C13.2797 27.6585 13.2036 27.6653 13.1794 27.6853C13.1552 27.7054 13.1552 27.7054 13.1101 27.7989C12.8303 27.8061 12.7543 27.8129 12.5606 27.9734L12.4152 28.0937C12.3635 28.0805 12.3426 28.1539 12.2875 28.0873C12.2599 28.054 12.2532 27.9474 12.3016 27.9072C12.3534 27.9205 12.3534 27.9205 12.3776 27.9004C12.4261 27.8603 12.4987 27.8001 12.5196 27.7267C12.4194 27.7536 12.3225 27.8338 12.1671 27.7941C12.1254 27.941 11.9115 27.7813 11.8664 27.8748C11.7111 27.8351 11.6142 27.9153 11.4898 27.9623C11.1891 28.0429 10.8851 28.0702 10.5292 28.0843C10.3254 28.0847 9.74831 28.226 9.57543 28.313C9.52699 28.3531 9.42677 28.38 9.32319 28.3536C9.21961 28.3271 9.12274 28.4073 9.02251 28.4342C8.94651 28.441 8.71849 28.4615 8.64583 28.5217C8.62161 28.5417 8.52139 28.5686 8.41446 28.4888C8.39359 28.5622 8.31758 28.569 8.21401 28.5426C8.08621 28.5362 7.93085 28.4965 7.77884 28.5101C7.70283 28.517 7.65104 28.5037 7.68196 28.5904C7.74045 28.7103 7.69537 28.8038 7.70207 28.9104C7.91181 29.4102 8.25269 29.9697 8.58687 30.4225C8.58687 30.4225 8.61444 30.4558 8.61779 30.5092C8.6245 30.6158 8.64872 30.5958 8.69715 30.5557C8.77986 30.6555 8.83835 30.7755 8.89349 30.842C8.79326 30.8689 8.82083 30.9022 8.87597 30.9688C8.98625 31.102 9.04474 31.2219 9.10323 31.3418C9.25859 31.3815 9.272 31.5949 9.37557 31.6213C9.38562 31.7814 9.54099 31.8211 9.57526 31.9611C9.60283 31.9943 9.70976 32.0742 9.76154 32.0874C9.86512 32.1139 9.94783 32.2137 9.95453 32.3204C10.0097 32.387 10.0406 32.4736 10.1132 32.4135C10.0339 32.3669 10.0305 32.3136 10.0756 32.2201C10.0998 32.2001 10.1274 32.2334 10.1032 32.2534C10.1583 32.32 10.1617 32.3733 10.1408 32.4467C10.13 32.6802 10.3405 32.7865 10.4508 32.9196C10.4783 32.9529 10.5268 32.9128 10.5268 32.9128C10.5752 32.8727 10.5994 32.8526 10.6822 32.9525C10.7097 32.9858 10.7615 32.999 10.8133 33.0122C10.8927 33.0588 10.9962 33.0852 10.9787 33.212C10.9578 33.2854 11.0372 33.3319 11.0856 33.2918C11.1341 33.2517 11.2652 33.3114 11.3137 33.2713C11.3379 33.2512 11.3103 33.218 11.3345 33.1979C11.3587 33.1778 11.459 33.151 11.459 33.151C11.5692 33.2841 11.6177 33.244 11.6419 33.2239C11.6903 33.1838 11.7388 33.1437 11.7906 33.1569C11.8599 33.0434 12.0395 33.0631 12.0845 32.9696C12.2541 32.8292 12.4545 32.7754 12.5998 32.6551C12.6483 32.615 12.7276 32.6615 12.7209 32.5548C12.7176 32.5014 12.8454 32.5079 12.8938 32.4677C12.9907 32.3875 13.0633 32.3273 13.1878 32.2804C13.2396 32.2936 13.212 32.2603 13.2362 32.2403L13.3815 32.1199C13.5511 31.9795 13.7724 31.8524 13.9419 31.712C14.0872 31.5916 14.2325 31.4713 14.4572 31.3974L14.8931 31.0364C14.9658 30.9762 14.9867 30.9028 15.0351 30.8627C15.0593 30.8427 15.0835 30.8226 15.1111 30.8559L15.547 30.4949C15.6231 30.488 15.6681 30.3946 15.7166 30.3544C15.765 30.3143 15.7307 30.1744 15.8343 30.2008C16.1007 29.9802 16.3429 29.7796 16.5575 29.5457C16.606 29.5056 16.7755 29.3652 16.8791 29.3917C16.8239 29.3251 16.8724 29.285 16.8966 29.2649C16.9726 29.2581 16.9968 29.2381 17.0453 29.1979C17.1179 29.1378 17.163 29.0443 17.2357 28.9841C17.2599 28.9641 17.3083 28.924 17.229 28.8774C17.229 28.8774 17.3467 28.7238 17.3743 28.7571C17.4261 28.7703 17.4536 28.8036 17.4227 28.717L17.4987 28.7102C17.6232 28.6632 17.5889 28.5232 17.6891 28.4963C17.7033 28.3162 17.8553 28.3026 17.9246 28.1891C17.9455 28.1157 18.0766 28.1754 17.9663 28.0423C17.9663 28.0423 18.0114 27.9488 18.039 27.9821C18.0908 27.9953 18.0874 27.942 18.0841 27.8886C18.1634 27.9352 18.1567 27.8285 18.1567 27.8285C18.2879 27.8882 18.2294 27.7683 18.226 27.7149C18.2953 27.6014 18.3889 27.4678 18.4548 27.301C18.479 27.2809 18.5275 27.2408 18.4999 27.2075C18.4932 27.1008 18.5141 27.0274 18.5383 27.0074C18.5867 26.9673 18.6385 26.9805 18.687 26.9404C18.7045 26.8136 18.6944 26.6536 18.7395 26.5601C18.7846 26.4667 18.6777 26.3868 18.6434 26.2469C18.5432 26.2737 18.4053 26.1073 18.336 26.2208C18.3118 26.2409 18.2358 26.2477 18.184 26.2345C18.0804 26.208 18.0044 26.2148 17.9318 26.275C17.9075 26.2951 17.8591 26.3352 17.8625 26.3885C17.7797 26.2887 17.7004 26.2421 17.6728 26.2089C17.5484 26.2558 17.4206 26.2494 17.2686 26.263C17.2894 26.1896 17.2861 26.1363 17.307 26.0629C17.2309 26.0697 17.1825 26.1098 17.1583 26.1299C17.1341 26.1499 17.0338 26.1768 17.0614 26.2101L16.8919 26.3505C16.8192 26.4107 16.7708 26.4508 16.6948 26.4576Z" fill="white"/>
<path d="M14.0096 27.1101C13.9853 27.1301 13.9336 27.1169 13.83 27.0904C13.9269 27.0102 13.9995 26.95 14.1824 27.023C14.0789 26.9966 14.058 27.07 14.0096 27.1101Z" fill="white"/>
<path d="M16.4284 26.6783L16.3732 26.6117C16.3975 26.5916 16.425 26.6249 16.4492 26.6049C16.425 26.6249 16.4526 26.6582 16.4284 26.6783Z" fill="white"/>
<path d="M12.7552 32.6948C12.807 32.708 12.807 32.708 12.8312 32.6879C12.7794 32.6747 12.7794 32.6747 12.7552 32.6948Z" fill="white"/>
<path d="M15.3777 26.9872L15.4295 27.0004C15.4019 26.9672 15.3777 26.9872 15.3777 26.9872Z" fill="white"/>
<path d="M17.8748 25.3681C17.9299 25.4347 17.9299 25.4347 17.9542 25.4146C17.9266 25.3814 17.9266 25.3813 17.8748 25.3681Z" fill="white"/>
<path d="M15.5681 26.7734C15.5439 26.7935 15.5439 26.7935 15.5714 26.8268L15.5681 26.7734Z" fill="white"/>
<path d="M20.251 40.0656C20.3462 40.0833 20.3879 40.0713 20.4832 40.089C20.4415 40.101 20.4119 40.1546 20.3702 40.1666C20.2989 40.2322 20.2572 40.2442 20.2333 40.1609C20.1916 40.1729 20.1796 40.1312 20.126 40.1016C20.138 40.1432 20.1083 40.1968 20.1083 40.1968C20.0786 40.2505 20.1323 40.2801 20.0906 40.2921C20.1266 40.4171 20.2218 40.4348 20.3884 40.3869C20.3765 40.3452 20.4181 40.3332 20.4598 40.3212C20.5014 40.3093 20.5847 40.2853 20.6264 40.2733C20.668 40.2614 20.668 40.2614 20.7097 40.2494C20.7393 40.1957 20.781 40.1838 20.8226 40.1718L20.8763 40.2015C20.8883 40.2431 20.9002 40.2848 20.8586 40.2967L20.1271 40.7326C20.0974 40.7862 20.0318 40.7149 19.9485 40.7388C19.9485 40.7388 19.5799 41.0252 19.5502 41.0789C19.4669 41.1028 18.7058 41.5923 18.6641 41.6043C18.5392 41.6402 18.4382 41.7594 18.3252 41.837C18.0873 41.9505 17.8316 42.1593 17.5817 42.2312C17.4984 42.2552 17.4391 42.3624 17.3558 42.3864C17.2845 42.452 17.0939 42.4166 17.0642 42.4702C17.0465 42.5655 16.9632 42.5895 16.8799 42.6134C16.8383 42.6254 16.755 42.6493 16.7133 42.6613C16.6717 42.6733 16.642 42.7269 16.642 42.7269C16.5587 42.7509 16.541 42.8462 16.3921 42.7988C16.3801 42.7571 16.2671 42.8347 16.1958 42.9003C16.1125 42.9243 16.0292 42.9482 15.9579 43.0139C15.8865 43.0795 15.8032 43.1034 15.7199 43.1274C15.4997 43.1456 15.0775 43.4023 14.8932 43.5455C14.8635 43.5991 14.8218 43.6111 14.7802 43.6231C14.5303 43.695 14.2387 43.7788 14.0367 44.0173C13.9654 44.0829 13.8758 43.9283 13.8165 44.0355C13.7868 44.0892 13.7035 44.1131 13.6738 44.1667C13.2516 44.4235 12.7935 44.5552 12.4248 44.8416C12.3832 44.8536 12.3056 44.7406 12.2879 44.8359C12.2582 44.8895 12.1749 44.9135 12.1036 44.9791C12.062 44.991 11.9787 45.015 11.937 45.027C11.9073 45.0806 11.836 45.1462 11.7944 45.1582C11.5028 45.242 10.6104 45.5889 10.3845 45.744C10.3132 45.8096 10.1762 45.8039 10.0929 45.8279C10.0513 45.8399 10.0096 45.8518 9.96796 45.8638C9.97994 45.9055 9.91433 45.8341 9.91433 45.8341C9.83103 45.8581 9.76542 45.7868 9.68212 45.8107C9.68212 45.8107 9.65245 45.8644 9.62277 45.918C9.52749 45.9003 9.43221 45.8826 9.33693 45.8649C9.25363 45.8888 9.22967 45.8055 9.16407 45.7342C9.02087 45.5499 8.87768 45.3656 8.65119 45.2053C8.53195 45.1043 8.38876 44.92 8.28722 44.7237C8.29293 44.5868 8.156 44.581 8.12007 44.4561C8.09611 44.3728 8.06018 44.2478 8.03622 44.1645C8.02424 44.1229 7.97061 44.0932 7.97061 44.0932C7.73214 43.8912 7.46917 43.2904 7.38532 42.9988C7.28378 42.8026 7.18224 42.6063 7.11037 42.3564C7.07444 42.2314 6.9552 42.1304 6.91927 42.0055C6.87136 41.8389 6.69277 41.8451 6.68651 41.6665C6.71619 41.6129 6.62091 41.5952 6.6386 41.4999C6.60267 41.375 6.56673 41.25 6.4475 41.149C6.38189 41.0777 6.42354 41.0657 6.45322 41.0121C6.52454 40.9465 6.59587 40.8809 6.66719 40.8153C6.75621 40.6544 6.78588 40.6008 6.92853 40.4695C7.13679 40.4097 7.68969 39.9801 7.75476 39.7359C7.97499 39.7176 8.09369 39.5031 8.30194 39.4432C8.33162 39.3896 8.36129 39.336 8.40294 39.324C8.48624 39.3 8.52789 39.2881 8.6112 39.2641C8.65285 39.2521 8.6945 39.2402 8.6945 39.2402C8.7778 39.2162 8.81945 39.2042 8.90276 39.1803C8.94441 39.1683 9.37862 38.9532 9.36664 38.9116C9.40829 38.8996 9.44994 38.8876 9.46192 38.9293C9.56918 38.9886 9.6405 38.923 9.72381 38.8991C9.96174 38.7855 10.2413 38.66 10.4673 38.5049C10.5386 38.4393 10.6755 38.445 10.7588 38.421C10.8005 38.409 10.8421 38.3971 10.8838 38.3851C11.0504 38.3372 11.1753 38.3012 11.318 38.17C11.5263 38.1101 11.6096 38.0862 11.7939 37.943L12.139 37.8888C12.1807 37.8768 12.264 37.8529 12.3473 37.8289C12.5139 37.781 12.6389 37.7451 12.8055 37.6972C12.8055 37.6972 12.8471 37.6852 12.8888 37.6732C12.9304 37.6612 12.9601 37.6076 13.0017 37.5956C13.085 37.5717 13.1027 37.4764 13.186 37.4524C13.2277 37.4405 13.2813 37.4701 13.335 37.4998C13.4599 37.4639 13.5849 37.4279 13.6442 37.3207C13.7155 37.2551 13.7572 37.2431 13.8405 37.2191C13.8821 37.2072 13.9654 37.1832 14.0191 37.2129C14.0727 37.2426 14.1263 37.2722 14.144 37.1769C14.132 37.1353 14.1081 37.052 14.2154 37.1113C14.281 37.1827 14.3226 37.1707 14.3643 37.1587C14.4059 37.1467 14.4059 37.1467 14.4772 37.0811C14.4653 37.0395 14.5725 37.0988 14.6142 37.0868C14.6558 37.0749 14.7271 37.0093 14.7688 36.9973C14.8818 36.9197 14.9651 36.8957 15.09 36.8598C15.215 36.8239 15.3816 36.776 15.5482 36.728C15.5898 36.7161 15.6315 36.7041 15.6851 36.7338C15.7804 36.7515 15.8814 36.6322 15.9527 36.5666C16.0064 36.5963 16.06 36.626 16.1016 36.614C16.1849 36.59 16.2979 36.5124 16.3812 36.4885C16.4645 36.4645 16.5478 36.4406 16.6311 36.4166C16.7681 36.4223 16.893 36.3864 17.018 36.3505C17.1429 36.3145 17.3095 36.2666 17.4345 36.2307C17.4761 36.2187 17.5594 36.1948 17.6427 36.1708C17.726 36.1468 17.7854 36.0396 17.8807 36.0573C17.976 36.075 18.2259 36.0031 18.3508 35.9672C18.3925 35.9552 18.4341 35.9432 18.4638 35.8896C18.5174 35.9193 18.6127 35.937 18.6544 35.925C18.696 35.913 18.7377 35.901 18.7673 35.8474C18.8626 35.8651 18.9162 35.8948 18.9579 35.8828C19.0828 35.8469 19.1422 35.7396 19.2791 35.7453C19.4577 35.739 19.6243 35.6911 19.7909 35.6432C19.8742 35.6193 19.9872 35.5417 20.0825 35.5594C20.1361 35.5891 20.1361 35.5891 20.1778 35.5771C20.2611 35.5531 20.5526 35.4693 20.5406 35.4276C20.7192 35.4214 20.8739 35.3318 21.0764 35.4088C21.1477 35.3432 21.231 35.3193 21.3143 35.2953C21.3976 35.2714 21.4809 35.2474 21.5882 35.3068C21.6179 35.2531 21.6595 35.2412 21.7012 35.2292C21.7845 35.2052 21.8678 35.1813 21.9511 35.1573C22.0167 35.2286 22.088 35.163 22.1297 35.151C22.1713 35.1391 22.213 35.1271 22.2249 35.1687C22.2905 35.2401 22.3259 35.0495 22.4332 35.1089C22.5405 35.1682 22.5701 35.1146 22.6414 35.049C22.6831 35.037 22.7904 35.0963 22.832 35.0844C22.8914 34.9771 22.9866 34.9948 23.0819 35.0125C23.3855 34.9703 23.689 34.9281 24.0165 34.9692C24.1118 34.9869 24.1951 34.9629 24.2784 34.939C24.32 34.927 24.3617 34.915 24.4033 34.9031C24.4866 34.8791 24.5283 34.8671 24.6059 34.9801C24.6298 35.0634 24.6532 34.8312 24.7011 34.9978C24.7131 35.0394 24.886 35.1701 24.9693 35.1462C25.0109 35.1342 25.0406 35.0806 25.0703 35.0269C25.1119 35.0149 25.1296 34.9197 25.1593 34.866C25.2249 34.9374 25.2369 34.979 25.2489 35.0207C25.3738 34.9847 25.3978 35.068 25.4098 35.1097C25.4993 35.2643 25.5353 35.3893 25.5832 35.5559C25.5951 35.5975 25.4942 35.7168 25.6608 35.6688C25.6608 35.6688 25.7264 35.7402 25.6847 35.7521C25.5837 35.8714 25.8159 35.8948 25.7566 36.0021C25.9118 36.228 25.8347 36.4305 25.8113 36.6628C25.7639 36.8117 25.7759 36.8533 25.8238 37.0199C25.8717 37.1865 25.878 37.3651 25.7473 37.538C25.676 37.6036 25.7416 37.6749 25.8072 37.7462C25.8192 37.7879 25.8312 37.8295 25.8312 37.8295C25.7895 37.8415 25.7062 37.8655 25.7062 37.8655C25.6823 37.7822 25.486 37.8837 25.6166 37.7108C25.563 37.6812 25.4677 37.6635 25.3844 37.6874C25.3428 37.6994 25.3011 37.7114 25.2715 37.765L25.2538 37.8603C25.0872 37.9082 24.9445 38.0394 25.0044 38.2477C24.9867 38.343 24.9091 38.23 24.8675 38.242C24.7665 38.3612 24.7191 38.5101 24.6301 38.671C24.6421 38.7127 24.654 38.7543 24.6124 38.7663C24.6124 38.7663 24.5291 38.7902 24.5171 38.7486C24.4812 38.6236 24.3979 38.6476 24.2729 38.6835C24.0647 38.7434 23.8741 38.708 23.6835 38.6726C23.6419 38.6846 23.6002 38.6966 23.5586 38.7086C23.4336 38.7445 23.3087 38.7804 23.1837 38.8164C23.154 38.87 23.0707 38.8939 23.0291 38.9059C22.9458 38.9299 22.9041 38.9419 22.8089 38.9242C22.6839 38.9601 22.5173 39.008 22.3923 39.0439C22.2794 39.1215 22.1247 39.2111 21.9998 39.247C21.9165 39.271 21.8748 39.283 21.7795 39.2653C21.6962 39.2892 21.5713 39.3252 21.488 39.3491C21.4463 39.3611 21.4047 39.3731 21.375 39.4267C21.3276 39.5756 21.2147 39.6532 21.1017 39.7308C20.9767 39.7667 20.8638 39.8443 20.7388 39.8802C20.6972 39.8922 20.6972 39.8922 20.6555 39.9042C20.5305 39.9401 20.3639 39.988 20.251 40.0656ZM22.899 39.3943C22.7563 39.5255 22.6433 39.6031 22.5064 39.5974C22.5064 39.5974 22.4647 39.6094 22.4351 39.663C22.3221 39.7406 22.2804 39.7526 22.1971 39.7765C22.1555 39.7885 22.0722 39.8125 21.9353 39.8067C22.0602 39.7708 22.1732 39.6932 22.2742 39.574C22.4824 39.5141 22.6907 39.4542 22.899 39.3943ZM24.4205 34.4923C24.3195 34.6115 24.2362 34.6355 24.2065 34.6891C24.1649 34.7011 24.0696 34.6834 24.0696 34.6834C24.0456 34.6001 23.9623 34.624 23.9087 34.5943C23.9503 34.5824 23.9384 34.5407 23.98 34.5287C24.0336 34.5584 24.1169 34.5345 24.1706 34.5641C24.2122 34.5521 24.2955 34.5282 24.4205 34.4923ZM24.6413 34.7895C24.7126 34.7239 24.7423 34.6703 24.7839 34.6583C24.8256 34.6463 24.8792 34.676 24.9448 34.7473C24.8615 34.7713 24.7782 34.7953 24.6413 34.7895ZM21.8405 40.1046C21.9118 40.0389 21.9415 39.9853 21.9832 39.9733C22.0248 39.9614 22.0368 40.003 22.0488 40.0447C22.0311 40.1399 21.9358 40.1222 21.8405 40.1046ZM21.1262 40.1296C21.0429 40.1536 21.0549 40.1952 21.0549 40.1952C21.0132 40.2072 20.9596 40.1775 20.9476 40.1359L20.9773 40.0822C21.0189 40.0702 21.0309 40.1119 21.1262 40.1296ZM21.7806 39.8963C21.727 39.8666 21.727 39.8666 21.6854 39.8786C21.715 39.825 21.7567 39.813 21.7567 39.813C21.7983 39.801 21.84 39.789 21.852 39.8307C21.852 39.8307 21.8103 39.8427 21.7806 39.8963ZM21.4531 39.8552C21.4948 39.8432 21.5068 39.8849 21.5187 39.9265C21.4771 39.9385 21.4651 39.8968 21.4531 39.8552ZM24.8503 38.6528L24.8206 38.7064C24.8087 38.6647 24.8503 38.6528 24.8503 38.6528ZM20.858 39.9812C20.8164 39.9932 20.8044 39.9516 20.7628 39.9635C20.8044 39.9516 20.8341 39.8979 20.8341 39.8979C20.8757 39.8859 20.8877 39.9276 20.8877 39.9276C20.8997 39.9693 20.858 39.9812 20.858 39.9812ZM24.4444 34.5756C24.4861 34.5636 24.4861 34.5636 24.4981 34.6052C24.4564 34.6172 24.4444 34.5756 24.4444 34.5756ZM22.887 39.3527C22.887 39.3527 22.899 39.3943 22.8573 39.4063C22.887 39.3527 22.887 39.3527 22.887 39.3527ZM23.1728 39.4057C23.1192 39.3761 23.1192 39.3761 23.1192 39.3761C23.1192 39.3761 23.1608 39.3641 23.1728 39.4057ZM21.412 40.1827C21.412 40.1827 21.4001 40.141 21.4417 40.1291C21.4537 40.1707 21.412 40.1827 21.412 40.1827ZM25.0997 38.2654C25.0997 38.2654 25.0877 38.2237 25.0757 38.1821C25.0877 38.2237 25.0877 38.2237 25.0997 38.2654Z" fill="white"/>
<path d="M6.46017 30.4478C6.64488 30.4992 6.64488 30.4992 6.58733 30.6148C6.40951 30.791 6.29097 30.9085 6.29613 31.0792C6.29957 31.1929 6.3709 31.5324 6.37435 31.6462C6.43706 31.7012 6.56077 31.7544 6.44223 31.8719C6.50322 31.8701 6.57111 32.0958 6.62521 31.8664C6.62866 31.9801 6.81336 32.0315 6.81681 32.1453C6.81681 32.1453 6.81853 32.2022 6.75926 32.2609C6.69826 32.2627 6.70343 32.4334 6.88641 32.4279L6.88813 32.4848C6.70859 32.6041 6.8933 32.6554 6.89674 32.7692C6.90019 32.883 6.96291 32.938 6.96635 33.0518C6.96807 33.1087 6.96979 33.1656 6.91052 33.2243C6.84952 33.2262 6.85125 33.283 6.85297 33.3399C6.91741 33.4519 6.98012 33.5069 7.04456 33.6188C7.04628 33.6757 6.92946 33.8501 7.11417 33.9014C7.11589 33.9583 7.17688 33.9565 7.17688 33.9565C7.17172 33.7858 7.23099 33.7271 7.28855 33.6115L7.29371 33.7821C7.29716 33.8959 7.24133 34.0684 7.24477 34.1822C7.24821 34.296 7.24994 34.3528 7.3161 34.5217C7.43637 34.4611 7.43464 34.4042 7.43464 34.4042C7.42776 34.1766 7.48186 33.9472 7.47497 33.7197L7.45947 33.2077C7.45775 33.1508 7.45431 33.037 7.38987 32.9251C7.51014 32.8645 7.32371 32.7563 7.38298 32.6975C7.43537 32.4112 7.36404 32.0718 7.53842 31.7818C7.59769 31.723 7.53325 31.6111 7.52981 31.4973C7.52808 31.4404 7.40609 31.4441 7.52636 31.3836C7.58736 31.3817 7.65007 31.4368 7.71279 31.4918L7.71624 31.6056C7.65868 31.7212 7.54014 31.8387 7.60286 31.8937C7.73001 32.0607 7.54875 32.1231 7.61147 32.1782C7.73518 32.2314 7.55564 32.3507 7.61835 32.4057C7.68107 32.4608 7.6218 32.5195 7.56252 32.5782C7.56425 32.6351 7.56597 32.692 7.62869 32.747L7.81684 32.9122L7.84783 33.9362C7.79028 34.0518 7.97671 34.16 7.79717 34.2793C7.85816 34.2775 7.85989 34.3344 7.85989 34.3344C7.9836 34.3876 7.98532 34.4445 7.92605 34.5032C7.86677 34.5619 7.8685 34.6188 7.99049 34.6151L8.05492 34.7271C7.87538 34.8464 7.94154 35.0152 7.94499 35.129C7.88744 35.2446 7.89088 35.3584 8.01632 35.4685L8.07731 35.4666C8.08075 35.5804 7.89949 35.6428 8.0232 35.696C8.02493 35.7529 8.14175 35.5786 8.14692 35.7492C8.21652 36.0318 8.2844 36.2575 8.41328 36.4814C8.415 36.5383 8.47944 36.6502 8.48116 36.7071C8.48289 36.764 8.48289 36.764 8.42706 36.9365C8.6831 37.3273 8.74753 37.4393 8.76131 37.8944L8.77164 38.2357C8.83435 38.2907 8.7768 38.4064 8.89879 38.4027C8.95979 38.4008 9.07834 38.2834 9.07489 38.1696C9.01218 38.1146 9.01217 38.1145 9.01045 38.0577C9.00701 37.9439 9.00184 37.7732 9.05939 37.6576C9.12555 37.8264 9.13244 38.054 9.32059 38.2191C9.20549 38.4503 9.5749 38.553 9.51908 38.7255C9.70723 38.8907 9.71411 39.1182 9.78199 39.3439C9.98048 39.8504 10.2382 40.2981 10.5587 40.8009C10.7503 41.0798 11.1456 42.0358 11.2169 42.3753C11.2203 42.4891 11.2865 42.6579 11.4119 42.768C11.5373 42.8781 11.5442 43.1056 11.6104 43.2745C11.6748 43.3864 11.8682 43.7222 11.8733 43.8928C11.875 43.9497 11.9412 44.1186 12.1259 44.1699C12.0684 44.2855 12.1328 44.3975 12.2582 44.5075C12.3854 44.6745 12.5735 44.8396 12.7024 45.0635C12.7669 45.1754 12.8296 45.2305 12.7093 45.2911C12.528 45.3535 12.4722 45.526 12.3537 45.6435C11.6303 45.9501 10.7206 46.1484 9.92936 46.2293C9.92936 46.2293 9.86837 46.2312 9.80909 46.2899C9.69055 46.4074 9.68882 46.3505 9.68538 46.2367C9.50239 46.2422 9.32113 46.3047 9.19914 46.3084C9.2653 46.4772 9.20431 46.479 9.08232 46.4827C8.83834 46.4901 8.65707 46.5525 8.47581 46.615C8.28766 46.4498 8.05057 46.6848 7.92513 46.5747C7.74731 46.7509 7.55916 46.5858 7.37962 46.7051C7.31863 46.7069 7.13392 46.6556 7.0712 46.6005C6.94577 46.4905 6.76278 46.496 6.64424 46.6135C6.52225 46.6172 6.40198 46.6777 6.39681 46.5071C6.52052 46.5603 6.5798 46.5015 6.63563 46.329C6.6339 46.2721 6.57291 46.274 6.57463 46.3309C6.45264 46.3346 6.39337 46.3933 6.33581 46.5089C6.10045 46.8007 5.79031 46.6393 5.54633 46.6467C5.48533 46.6485 5.48188 46.5348 5.48188 46.5348C5.47844 46.421 5.47672 46.3641 5.29373 46.3696C5.23274 46.3715 5.17002 46.3164 5.10731 46.2614C4.98359 46.2082 4.85816 46.0981 4.74133 46.2725C4.68378 46.3881 4.56007 46.3349 4.55663 46.2211C4.55318 46.1073 4.36675 45.9991 4.36331 45.8853C4.36159 45.8284 4.42258 45.8266 4.42086 45.7697C4.41914 45.7128 4.35298 45.544 4.35298 45.544C4.109 45.5514 4.10556 45.4376 4.10383 45.3807C4.10039 45.2669 4.09694 45.1532 4.03423 45.0981C4.08833 44.8687 3.89846 44.6467 3.95429 44.4742C3.94224 44.076 3.80991 43.7383 3.79958 43.397C3.79614 43.2832 3.67243 43.23 3.79097 43.1126C3.85025 43.0538 3.72309 42.8868 3.71965 42.7731C3.71276 42.5455 3.70759 42.3748 3.63971 42.1491C3.57699 42.0941 3.63799 42.0923 3.63626 42.0354L3.62593 41.694C3.61388 41.2958 3.53911 40.8425 3.52706 40.4443C3.51672 40.103 3.50639 39.7617 3.37235 39.3671L3.34135 38.3431C3.33619 38.1725 3.39374 38.0568 3.39029 37.9431C3.38857 37.8862 3.38685 37.8293 3.32586 37.8311L3.29486 36.8071C3.23042 36.6952 3.28625 36.5227 3.28281 36.4089C3.27936 36.2951 3.4589 36.1758 3.33347 36.0657C3.31453 35.44 3.29731 34.8711 3.34108 34.3003C3.33764 34.1866 3.32559 33.7883 3.20015 33.6783C3.32214 33.6746 3.3187 33.5608 3.31698 33.5039C3.25254 33.392 3.25081 33.3351 3.24737 33.2213C3.2422 33.0506 3.29804 32.8781 3.29287 32.7075C3.29115 32.6506 3.2877 32.5368 3.41142 32.59C3.41142 32.59 3.46208 32.2468 3.40108 32.2487C3.33837 32.1936 3.27737 32.1955 3.39764 32.1349L3.3332 32.0229C3.26532 31.7972 3.44486 31.6779 3.3787 31.5091C3.5548 31.276 3.42592 31.0521 3.48003 30.8227C3.53758 30.7071 3.35115 30.5989 3.59513 30.5915C3.59513 30.5915 3.65096 30.419 3.58996 30.4208C3.52724 30.3658 3.58652 30.3071 3.64579 30.2483C3.52208 30.1951 3.64062 30.0777 3.64062 30.0777C3.4542 29.9694 3.63546 29.907 3.69473 29.8483C3.74884 29.6189 3.80122 29.3326 3.9146 29.0444C3.91288 28.9875 3.90944 28.8738 3.97043 28.8719C4.08898 28.7544 4.14653 28.6388 4.14481 28.5819C4.14137 28.4682 4.07865 28.4131 4.0752 28.2993C4.19203 28.125 4.36985 27.9488 4.42568 27.7763C4.48151 27.6037 4.66621 27.6551 4.84576 27.5358C4.91192 27.7046 5.21689 27.6954 5.16278 27.9248C5.1645 27.9817 5.22895 28.0936 5.29166 28.1486C5.4171 28.2587 5.48153 28.3706 5.4867 28.5413C5.48842 28.5982 5.49187 28.712 5.43259 28.7707C5.61558 28.7652 5.73929 28.8184 5.80028 28.8165C5.86817 29.0422 5.99533 29.2092 6.1242 29.4331C6.18175 29.3174 6.24103 29.2587 6.29858 29.1431C6.36302 29.255 6.36646 29.3688 6.36818 29.4257C6.3699 29.4826 6.43607 29.6514 6.37507 29.6532L6.38712 30.0515C6.39229 30.2221 6.39573 30.3359 6.46017 30.4478Z" fill="white"/>
<path d="M8.30407 34.8904C8.30579 34.9472 8.36851 35.0023 8.49394 35.1124C8.48705 34.8848 8.48189 34.7141 8.23275 34.5509C8.35818 34.6609 8.30063 34.7766 8.30407 34.8904Z" fill="white"/>
<path d="M6.47912 31.0736L6.60111 31.0699C6.59938 31.013 6.53839 31.0149 6.53666 30.958C6.53839 31.0149 6.47739 31.0167 6.47912 31.0736Z" fill="white"/>
<path d="M3.61143 43.2319C3.54872 43.1768 3.54871 43.1768 3.54699 43.1199C3.6097 43.175 3.60971 43.175 3.61143 43.2319Z" fill="white"/>
<path d="M7.14417 32.8756L7.08145 32.8205C7.14245 32.8187 7.14417 32.8756 7.14417 32.8756Z" fill="white"/>
<path d="M6.37063 27.4896C6.43163 27.4878 6.43163 27.4878 6.49434 27.5428C6.37235 27.5465 6.37235 27.5465 6.37063 27.4896Z" fill="white"/>
<path d="M7.18967 32.3617C7.19139 32.4186 7.19139 32.4186 7.13039 32.4205L7.18967 32.3617Z" fill="white"/>
<path d="M4.01251 35.6564C4.05706 35.6937 4.05706 36.4412 4.02793 36.4579C3.95891 36.4705 3.91289 36.479 3.89454 36.5165C3.8823 36.5415 3.86248 36.6247 3.85025 36.6497C3.86102 36.6705 3.88868 36.6995 3.84267 36.708C3.85955 36.7162 3.85197 36.7745 3.89333 36.7328C3.8811 36.7578 3.92565 36.7951 3.91341 36.8201C3.91341 36.8201 3.90729 36.8326 3.88429 36.8368C3.8674 36.8285 3.84904 36.866 3.89971 36.8908L3.89359 36.9033C3.83069 36.9035 3.87524 36.9408 3.863 36.9658C3.85076 36.9908 3.86154 37.0115 3.8493 37.0365C3.84318 37.049 3.83706 37.0615 3.81406 37.0657C3.79717 37.0575 3.79105 37.07 3.78493 37.0825C3.78958 37.1157 3.80036 37.1365 3.80501 37.1697C3.79889 37.1822 3.74676 37.2032 3.79131 37.2405C3.78519 37.253 3.80208 37.2613 3.80208 37.2613C3.82043 37.2238 3.84344 37.2195 3.87257 37.2028L3.85421 37.2403C3.84198 37.2653 3.80673 37.2945 3.7945 37.3195C3.78226 37.3445 3.77614 37.357 3.77468 37.4028C3.81457 37.4068 3.82069 37.3943 3.82069 37.3943C3.84516 37.3443 3.88653 37.3026 3.911 37.2526L3.96606 37.1402C3.97218 37.1277 3.98441 37.1027 3.97976 37.0694C4.01966 37.0735 3.98123 37.0237 4.00423 37.0194C4.05171 36.9652 4.07153 36.882 4.15279 36.8443C4.1758 36.8401 4.17114 36.8068 4.18338 36.7818C4.1895 36.7693 4.15572 36.7528 4.19562 36.7568C4.21251 36.7651 4.22328 36.7859 4.23405 36.8066L4.22181 36.8316C4.19269 36.8484 4.14667 36.8568 4.15744 36.8776C4.17287 36.9316 4.11608 36.9193 4.12685 36.9401C4.15451 36.9691 4.09161 36.9693 4.10238 36.99C4.11315 37.0108 4.09014 37.015 4.06714 37.0193C4.06102 37.0317 4.0549 37.0442 4.06567 37.065L4.09799 37.1273L3.98786 37.3522C3.95874 37.3689 3.99717 37.4187 3.93426 37.4189C3.95115 37.4272 3.94504 37.4397 3.94504 37.4397C3.9727 37.4687 3.96658 37.4812 3.94357 37.4854C3.92056 37.4897 3.91444 37.5022 3.94822 37.5187L3.95288 37.552C3.88997 37.5521 3.88851 37.5979 3.87627 37.6229C3.84715 37.6396 3.83491 37.6646 3.85645 37.7061L3.87334 37.7144C3.86111 37.7394 3.80432 37.7271 3.83198 37.7561C3.82586 37.7686 3.87799 37.7477 3.85964 37.7852C3.84594 37.8559 3.83836 37.9141 3.84766 37.9807C3.84154 37.9932 3.8462 38.0264 3.84008 38.0389C3.83396 38.0514 3.83396 38.0514 3.79872 38.0806C3.82345 38.2012 3.8281 38.2344 3.77916 38.3344L3.74245 38.4094C3.75322 38.4301 3.7241 38.4469 3.75787 38.4634C3.77476 38.4717 3.82078 38.4632 3.83301 38.4382C3.82224 38.4175 3.82224 38.4175 3.82836 38.405C3.8406 38.38 3.85895 38.3425 3.88808 38.3258C3.88661 38.3715 3.86214 38.4215 3.89445 38.4838C3.8362 38.5172 3.9253 38.5918 3.89006 38.6211C3.92237 38.6834 3.8979 38.7333 3.89032 38.7916C3.88592 38.9289 3.90453 39.0619 3.93392 39.2157C3.954 39.303 3.95133 39.565 3.93151 39.6483C3.91927 39.6733 3.9178 39.719 3.93935 39.7605C3.96089 39.8021 3.93642 39.8521 3.93495 39.8978C3.93961 39.9311 3.95356 40.0309 3.93521 40.0683C3.92909 40.0808 3.92763 40.1266 3.97218 40.1639C3.94305 40.1806 3.94771 40.2139 3.96925 40.2554C3.98467 40.3094 4.01699 40.3717 4.02629 40.4382C4.03094 40.4715 4.04172 40.4923 4.00182 40.4882C3.94503 40.4759 3.90979 40.5051 3.86377 40.5136C3.63051 40.4768 3.35882 40.3903 3.13314 40.2953C3.13314 40.2953 3.11625 40.287 3.09325 40.2912C3.04723 40.2997 3.05335 40.2872 3.06559 40.2622C3.01492 40.2374 2.95813 40.2251 2.92435 40.2085C2.92289 40.2543 2.906 40.246 2.87222 40.2295C2.80466 40.1964 2.74788 40.1841 2.69109 40.1718C2.65878 40.1095 2.56675 40.1264 2.54521 40.0849C2.47619 40.0975 2.44387 40.0352 2.38097 40.0354C2.36408 40.0272 2.31953 39.9898 2.30876 39.9691C2.28722 39.9276 2.23655 39.9027 2.19053 39.9112C2.15676 39.8947 2.11686 39.8906 2.13521 39.8531C2.16287 39.8822 2.18588 39.8779 2.22112 39.8487C2.22724 39.8362 2.21035 39.828 2.20423 39.8405C2.17046 39.8239 2.14745 39.8281 2.11832 39.8449C2.02018 39.8743 1.95408 39.7954 1.88653 39.7624C1.86964 39.7541 1.88187 39.7291 1.88187 39.7291C1.89411 39.7041 1.90023 39.6916 1.84956 39.6668C1.83267 39.6585 1.8219 39.6378 1.81113 39.617C1.78347 39.588 1.76193 39.5464 1.70979 39.5674C1.68067 39.5841 1.65301 39.5551 1.66524 39.5301C1.67748 39.5051 1.63905 39.4553 1.65128 39.4303C1.6574 39.4178 1.67429 39.4261 1.68041 39.4136C1.68653 39.4011 1.68799 39.3553 1.68799 39.3553C1.62044 39.3222 1.63267 39.2973 1.63879 39.2848C1.65103 39.2598 1.66326 39.2348 1.65249 39.214C1.69385 39.1723 1.66766 39.0975 1.7029 39.0683C1.74573 38.9808 1.74866 38.8893 1.78536 38.8143C1.7976 38.7894 1.76994 38.7603 1.81595 38.7519C1.83896 38.7476 1.82354 38.6936 1.83577 38.6686C1.86025 38.6186 1.8786 38.5812 1.88618 38.5229C1.87541 38.5021 1.8923 38.5104 1.89842 38.4979L1.93513 38.4229C1.97795 38.3355 2.01001 38.2272 2.05284 38.1398C2.08954 38.0648 2.12625 37.9898 2.1353 37.8858L2.24543 37.6609C2.26378 37.6234 2.2929 37.6067 2.30514 37.5817C2.31126 37.5692 2.31738 37.5567 2.30049 37.5484L2.41061 37.3235C2.40596 37.2903 2.4412 37.2611 2.45344 37.2361C2.46567 37.2111 2.52858 37.2109 2.50704 37.1694C2.57433 37.0319 2.63552 36.907 2.71359 36.7903C2.72582 36.7653 2.76865 36.6778 2.74711 36.6363C2.78088 36.6528 2.79312 36.6278 2.79924 36.6153C2.79458 36.5821 2.8007 36.5696 2.81294 36.5446C2.83129 36.5071 2.86654 36.4779 2.88489 36.4404C2.89101 36.4279 2.90324 36.4029 2.93091 36.4319C2.93091 36.4319 2.9845 35.9915 2.96761 35.9832C2.95684 35.9625 2.93995 35.9542 2.97985 35.9582L2.9752 35.925C2.98278 35.8667 3.04568 35.8665 3.04715 35.8208C3.12229 35.7956 3.11298 35.3553 3.15434 35.3136C3.18347 35.2969 3.14504 35.2471 3.21259 35.2802C3.21259 35.2802 3.24784 35.251 3.23095 35.2427C3.22018 35.2219 3.24318 35.2177 3.26619 35.2135C3.23853 35.1845 3.28455 35.176 3.28455 35.176C3.24611 35.1262 3.3029 35.1385 3.32591 35.1343C3.36727 35.0926 3.41475 35.0384 3.47912 34.9924C3.48524 34.9799 3.49747 34.9549 3.51436 34.9632C3.56037 34.9548 3.5895 34.938 3.59562 34.9255C3.60785 34.9006 3.59708 34.8798 3.60932 34.8548C3.66145 34.8339 3.73047 34.8212 3.76572 34.792C3.80096 34.7627 3.84551 34.8 3.90841 34.7999C3.90695 34.8456 3.99139 34.887 3.95003 34.9287C3.94392 34.9412 3.94857 34.9744 3.95934 34.9952C3.98088 35.0367 3.98553 35.07 3.96718 35.1075C3.96106 35.12 3.94883 35.145 3.92582 35.1492C3.97649 35.174 4.00415 35.203 4.02104 35.2113C4.01345 35.2695 4.02888 35.3236 4.03819 35.3901C4.06731 35.3734 4.09032 35.3691 4.11944 35.3524C4.1241 35.3857 4.11186 35.4107 4.10574 35.4232C4.09962 35.4357 4.09816 35.4814 4.08127 35.4732L4.03844 35.5606C4.02009 35.5981 4.00785 35.6231 4.01251 35.6564Z" fill="white"/>
<path d="M4.00208 37.6225C3.99596 37.635 4.00673 37.6558 4.02827 37.6973C4.05275 37.6473 4.0711 37.6098 4.0219 37.5393C4.04344 37.5808 4.01432 37.5975 4.00208 37.6225Z" fill="white"/>
<path d="M3.94521 36.5413L3.97899 36.5578C3.9851 36.5453 3.96821 36.5371 3.97433 36.5246C3.96821 36.5371 3.95133 36.5288 3.94521 36.5413Z" fill="white"/>
<path d="M1.75305 38.752C1.74228 38.7313 1.74228 38.7313 1.7484 38.7188C1.75917 38.7396 1.75917 38.7396 1.75305 38.752Z" fill="white"/>
<path d="M3.91832 37.0238L3.90755 37.0031C3.92444 37.0113 3.91832 37.0238 3.91832 37.0238Z" fill="white"/>
<path d="M4.33065 35.0066C4.34753 35.0149 4.34753 35.0149 4.35831 35.0356C4.32453 35.0191 4.32453 35.0191 4.33065 35.0066Z" fill="white"/>
<path d="M3.99027 36.9197C3.98416 36.9321 3.98416 36.9321 3.96727 36.9239L3.99027 36.9197Z" fill="white"/>
<path d="M390.362 43.3055V28.703H395.341V34.0168H406.031V28.703H411.031V43.3055H406.031V37.5524H395.341V43.3055H390.362Z" fill="white"/>
<path d="M376.869 43.5566C375.593 43.5566 374.442 43.4729 373.375 43.2846C372.308 43.0963 371.409 42.8662 370.697 42.5733C369.965 42.2595 369.338 41.9038 368.773 41.4854C368.208 41.0461 367.769 40.6277 367.455 40.1884C367.141 39.749 366.89 39.2888 366.681 38.7867C366.471 38.2846 366.325 37.8243 366.262 37.4268C366.199 37.0084 366.179 36.6109 366.179 36.2135V35.6277C366.179 35.0001 366.241 34.3934 366.367 33.8285C366.492 33.2637 366.785 32.636 367.225 31.9457C367.685 31.2553 368.271 30.6486 369.003 30.1465C369.735 29.6444 370.781 29.226 372.141 28.8913C373.48 28.5356 375.07 28.3683 376.869 28.3683H377.748C379.526 28.3683 381.074 28.5147 382.434 28.8076C383.773 29.1214 384.819 29.4771 385.551 29.8955C386.283 30.3348 386.89 30.816 387.35 31.3808C387.831 31.9457 388.124 32.4478 388.271 32.8871C388.396 33.3264 388.459 33.7448 388.459 34.1423V34.3725H383.145C383.103 34.2051 383.061 34.0796 382.999 33.954C382.936 33.8285 382.769 33.6193 382.497 33.3473C382.225 33.0754 381.911 32.8453 381.534 32.657C381.158 32.4687 380.593 32.3013 379.861 32.1549C379.107 32.0084 378.271 31.9248 377.308 31.9248C376.158 31.9248 375.174 32.0294 374.379 32.2595C373.563 32.4687 372.957 32.7616 372.538 33.1381C372.141 33.5356 371.848 33.9331 371.681 34.3515C371.492 34.7699 371.409 35.2302 371.409 35.7323V35.9624C371.409 36.4436 371.513 36.9038 371.702 37.3432C371.89 37.7825 372.204 38.2009 372.622 38.6193C373.04 39.0377 373.647 39.3725 374.463 39.6235C375.279 39.8745 376.241 40.0001 377.35 40.0001C380.635 40.0001 382.559 39.1423 383.145 37.4478C383.166 37.4268 383.166 37.4059 383.166 37.385H388.48V37.5942C388.48 38.0335 388.417 38.4938 388.271 38.954C388.103 39.4143 387.789 39.9164 387.329 40.5022C386.848 41.067 386.241 41.5691 385.488 42.0084C384.756 42.4268 383.71 42.8034 382.371 43.1172C381.032 43.4101 379.484 43.5566 377.748 43.5566H376.869Z" fill="white"/>
<path d="M347.52 28.6402H364.361V31.9666H352.457V34.1423H364.089V37.4896H352.457V39.8955H364.591V43.3055H347.52V28.6402Z" fill="white"/>
<path d="M334.111 43.3264V32.1549H327.249V28.6821H346.036V32.1549H339.153V43.3264H334.111Z" fill="white"/>
<path d="M304.291 43.5775C302.701 43.5775 301.3 43.452 300.128 43.2009C298.936 42.9499 298.015 42.657 297.367 42.3013C296.739 41.9457 296.216 41.5064 295.84 41.0043C295.463 40.5022 295.212 40.0419 295.107 39.6444C295.003 39.2469 294.961 38.8076 294.961 38.3474V38.1382H300.17C300.275 39.6863 301.404 40.4603 304.459 40.4603H305.609C306.614 40.4603 307.032 40.3976 307.702 40.3139C308.35 40.2302 308.831 40.1256 309.124 39.9582C309.438 39.7909 309.626 39.6444 309.731 39.4771C309.835 39.3097 309.877 39.1214 309.877 38.8913C309.877 38.5775 309.794 38.3264 309.626 38.1382C309.459 37.9708 309.04 37.8034 308.413 37.657C307.785 37.5315 306.886 37.4478 305.693 37.4269L304.124 37.385L302.953 37.3641C297.764 37.2386 295.17 35.7951 295.17 33.0754V32.8871C295.17 32.4269 295.233 31.9875 295.358 31.59C295.484 31.1925 295.735 30.7951 296.132 30.3766C296.509 29.9792 297.011 29.6444 297.639 29.3725C298.266 29.1005 299.103 28.8704 300.17 28.703C301.216 28.5147 302.45 28.431 303.852 28.431H305.337C306.781 28.431 308.078 28.5147 309.187 28.703C310.317 28.8913 311.195 29.1214 311.865 29.4143C312.534 29.7072 313.078 30.0628 313.496 30.4812C313.915 30.8997 314.208 31.3181 314.354 31.7156C314.522 32.134 314.605 32.5733 314.605 33.0545V33.2428H309.417C309.375 33.0963 309.333 32.9499 309.291 32.8453C309.25 32.7407 309.124 32.5942 308.936 32.4059C308.748 32.2176 308.517 32.0712 308.204 31.9457C307.911 31.8411 307.45 31.7365 306.865 31.6319C306.279 31.5482 305.819 31.5064 305.024 31.5064H304.291C303.078 31.5064 302.325 31.5691 301.676 31.6946C301.049 31.8411 300.651 31.9875 300.526 32.134C300.379 32.2804 300.317 32.4896 300.317 32.7616C300.317 33.0126 300.379 33.2009 300.547 33.3683C300.693 33.5147 301.049 33.6612 301.614 33.8076C302.178 33.9331 302.973 33.9959 303.999 34.0168L305.17 34.0377L306.676 34.0587C309.668 34.1005 311.802 34.4771 313.12 35.1674C314.459 35.8578 315.107 36.9248 315.107 38.4101V38.6821C315.107 39.226 315.045 39.7072 314.919 40.1256C314.794 40.544 314.522 40.9833 314.124 41.4436C313.727 41.8829 313.204 42.2595 312.534 42.5524C311.865 42.8662 310.965 43.0963 309.814 43.2846C308.664 43.4938 307.304 43.5775 305.756 43.5775H304.291Z" fill="white"/>
<path d="M292.986 28.703V43.3055H288.007V28.703H292.986Z" fill="white"/>
<path d="M285.04 37.2176C285.542 37.7616 285.793 38.4729 285.793 39.3515V43.3055H281.253V40.7323C281.253 39.8536 281.023 39.2051 280.563 38.8076C280.103 38.4101 279.329 38.2009 278.22 38.2009H272.32V43.3055H267.802V28.9122H279.454C283.638 28.9122 285.73 30.1674 285.73 32.657V32.8871C285.73 34.4143 284.831 35.4603 283.053 36.0461C283.868 36.2762 284.538 36.6528 285.04 37.2176ZM281.002 33.5984V33.5775C281.002 33.1591 280.856 32.8243 280.563 32.5733C280.27 32.3222 279.81 32.1758 279.182 32.1758H272.32V35.021H279.182C279.81 35.021 280.27 34.8745 280.563 34.6235C280.856 34.3724 281.002 34.0168 281.002 33.5984Z" fill="white"/>
<path d="M258.791 28.8285L266.573 43.2846H261.657L260.297 40.6486H249.857L248.498 43.2846H243.602L251.364 28.8285H258.791ZM251.552 37.385H258.623L255.862 32.0712H254.293L251.552 37.385Z" fill="white"/>
<path d="M238.299 43.1381H232.149L223.969 28.6821H229.555L235.35 39.3097L240.789 28.6821H245.914L238.299 43.1381Z" fill="white"/>
<path d="M205.98 28.6402H222.821V31.9666H210.917V34.1423H222.549V37.4896H210.917V39.8955H223.051V43.3055H205.98V28.6402Z" fill="white"/>
<path d="M177.153 28.6821H182.132V39.6863H193.241V43.3264H177.153V28.6821Z" fill="white"/>
<path d="M168.142 28.8285L175.924 43.2846H171.008L169.648 40.6486H159.209L157.849 43.2846H152.954L160.715 28.8285H168.142ZM160.903 37.385H167.974L165.213 32.0712H163.644L160.903 37.385Z" fill="white"/>
<path d="M141.595 43.5566C140.319 43.5566 139.168 43.4729 138.101 43.2846C137.034 43.0963 136.135 42.8662 135.423 42.5733C134.691 42.2595 134.064 41.9038 133.499 41.4854C132.934 41.0461 132.495 40.6277 132.181 40.1884C131.867 39.749 131.616 39.2888 131.407 38.7867C131.198 38.2846 131.051 37.8243 130.988 37.4268C130.926 37.0084 130.905 36.6109 130.905 36.2135V35.6277C130.905 35.0001 130.967 34.3934 131.093 33.8285C131.218 33.2637 131.511 32.636 131.951 31.9457C132.411 31.2553 132.997 30.6486 133.729 30.1465C134.461 29.6444 135.507 29.226 136.867 28.8913C138.206 28.5356 139.796 28.3683 141.595 28.3683H142.474C144.252 28.3683 145.8 28.5147 147.16 28.8076C148.499 29.1214 149.545 29.4771 150.277 29.8955C151.009 30.3348 151.616 30.816 152.076 31.3808C152.557 31.9457 152.85 32.4478 152.997 32.8871C153.122 33.3264 153.185 33.7448 153.185 34.1423V34.3725H147.871C147.829 34.2051 147.787 34.0796 147.725 33.954C147.662 33.8285 147.495 33.6193 147.223 33.3473C146.951 33.0754 146.637 32.8453 146.26 32.657C145.884 32.4687 145.319 32.3013 144.587 32.1549C143.834 32.0084 142.997 31.9248 142.034 31.9248C140.884 31.9248 139.9 32.0294 139.105 32.2595C138.29 32.4687 137.683 32.7616 137.264 33.1381C136.867 33.5356 136.574 33.9331 136.407 34.3515C136.218 34.7699 136.135 35.2302 136.135 35.7323V35.9624C136.135 36.4436 136.239 36.9038 136.428 37.3432C136.616 37.7825 136.93 38.2009 137.348 38.6193C137.767 39.0377 138.373 39.3725 139.189 39.6235C140.005 39.8745 140.967 40.0001 142.076 40.0001C145.361 40.0001 147.285 39.1423 147.871 37.4478C147.892 37.4268 147.892 37.4059 147.892 37.385H153.206V37.5942C153.206 38.0335 153.143 38.4938 152.997 38.954C152.829 39.4143 152.516 39.9164 152.055 40.5022C151.574 41.067 150.967 41.5691 150.214 42.0084C149.482 42.4268 148.436 42.8034 147.097 43.1172C145.758 43.4101 144.21 43.5566 142.474 43.5566H141.595Z" fill="white"/>
<path d="M129.013 28.703V43.3055H124.034V28.703H129.013Z" fill="white"/>
<path d="M110.646 43.3264V32.1549H103.784V28.6821H122.571V32.1549H115.688V43.3264H110.646Z" fill="white"/>
<path d="M92.5244 43.3264V32.1549H85.6625V28.6821H104.449V32.1549H97.5663V43.3264H92.5244Z" fill="white"/>
<path d="M80.2102 28.8285L87.9926 43.2846H83.0763L81.7164 40.6486H71.2771L69.9173 43.2846H65.0219L72.7834 28.8285H80.2102ZM72.9717 37.385H80.0428L77.2813 32.0712H75.7123L72.9717 37.385Z" fill="white"/>
<path d="M48.468 43.1381H43.0287L36.5643 28.6821H41.9408L45.9994 38.6193L48.8655 31.0879H55.2254L58.3634 38.3473L62.3383 28.6821H67.1919L60.8111 43.1381H55.853L52.4848 34.5607H51.648L48.468 43.1381Z" fill="white"/>
</svg>
